<?xml version="1.0" encoding="UTF-8" standalone="no"?>
<!-- Generator: Adobe Illustrator 18.1.1, SVG Export Plug-In . SVG Version: 6.00 Build 0)  -->
<!DOCTYPE svg  PUBLIC '-//W3C//DTD SVG 1.1//EN'  'http://www.w3.org/Graphics/SVG/1.1/DTD/svg11.dtd'>
<svg id="レイヤー_1" xmlns="http://www.w3.org/2000/svg" xml:space="preserve" viewBox="0 0 80 80" version="1.1" y="0px" x="0px" xmlns:xlink="http://www.w3.org/1999/xlink" enable-background="new 0 0 80 80">
<circle cy="39.7" cx="40.3" r="39.7" fill="#58A3DA"/>
<path d="m65.2 27.2c-1.7 0.8-3.5 1.3-5.4 1.5 2-1.2 3.4-3 4.2-5.2-1.8 1.1-3.8 1.9-6 2.3-1.7-1.8-4.2-3-6.9-3-5.2 0-9.4 4.2-9.4 9.4 0 0.7 0.1 1.5 0.2 2.2-7.9-0.5-14.9-4.2-19.6-9.9-0.8 1.4-1.3 3-1.3 4.8 0 3.3 1.7 6.2 4.2 7.9-1.5 0-3-0.5-4.3-1.2v0.1c0 4.6 3.3 8.4 7.6 9.3-0.8 0.2-1.6 0.3-2.5 0.3-0.6 0-1.2-0.1-1.8-0.2 1.2 3.8 4.7 6.5 8.8 6.6-3.2 2.5-7.3 4-11.7 4-0.8 0-1.5 0-2.3-0.1 4.2 2.7 9.1 4.2 14.5 4.2 17.4 0 26.9-14.4 26.9-26.9v-1.2c1.9-1.4 3.5-3 4.8-4.9z" fill="#fff"/>
</svg>
