<?xml version="1.0" encoding="utf-8"?>
<!-- Generator: Adobe Illustrator 18.1.1, SVG Export Plug-In . SVG Version: 6.00 Build 0)  -->
<!DOCTYPE svg PUBLIC "-//W3C//DTD SVG 1.1//EN" "http://www.w3.org/Graphics/SVG/1.1/DTD/svg11.dtd">
<svg version="1.1" id="レイヤー_1" xmlns="http://www.w3.org/2000/svg" xmlns:xlink="http://www.w3.org/1999/xlink" x="0px"
	 y="0px" viewBox="152 0 540 595.3" style="enable-background:new 152 0 540 595.3;" xml:space="preserve">
<g>
	<g>
		<g style="opacity:0.51;">
			<circle style="fill:#E72035;" cx="251.4" cy="110.6" r="2.7"/>
			<circle style="fill:#E72035;" cx="250" cy="119.3" r="2.7"/>
			<circle style="fill:#E72035;" cx="251.4" cy="127.8" r="2.7"/>
			<circle style="fill:#E72035;" cx="255.7" cy="135.1" r="2.7"/>
			<circle style="fill:#E72035;" cx="262.5" cy="140.9" r="2.7"/>
			<circle style="fill:#E72035;" cx="270.4" cy="143.8" r="2.7"/>
			<circle style="fill:#E72035;" cx="279.1" cy="143.8" r="2.7"/>
			<circle style="fill:#E72035;" cx="287.3" cy="140.9" r="2.7"/>
			<circle style="fill:#E72035;" cx="294.1" cy="135.1" r="2.7"/>
		</g>
		<g style="opacity:0.58;">
			<circle style="fill:#E72035;" cx="248.9" cy="104.3" r="3.3"/>
			<circle style="fill:#E72035;" cx="245.4" cy="113.9" r="3.3"/>
			<circle style="fill:#E72035;" cx="245.4" cy="124.5" r="3.3"/>
			<circle style="fill:#E72035;" cx="248.9" cy="134.3" r="3.3"/>
			<circle style="fill:#E72035;" cx="255.7" cy="142.2" r="3.3"/>
			<circle style="fill:#E72035;" cx="264.7" cy="147.4" r="3.3"/>
			<circle style="fill:#E72035;" cx="274.8" cy="149.3" r="3.3"/>
			<circle style="fill:#E72035;" cx="285.1" cy="147.4" r="3.3"/>
			<circle style="fill:#E72035;" cx="294.1" cy="142.2" r="3.3"/>
		</g>
		<g style="opacity:0.65;">
			<circle style="fill:#E72035;" cx="247.3" cy="96.2" r="4.1"/>
			<circle style="fill:#E72035;" cx="241" cy="106.8" r="4.1"/>
			<circle style="fill:#E72035;" cx="238.8" cy="119.3" r="4.1"/>
			<circle style="fill:#E72035;" cx="241" cy="131.6" r="4.1"/>
			<circle style="fill:#E72035;" cx="247.3" cy="142.2" r="4.1"/>
			<circle style="fill:#E72035;" cx="256.8" cy="150.4" r="4.1"/>
			<circle style="fill:#E72035;" cx="268.5" cy="154.7" r="4.1"/>
			<circle style="fill:#E72035;" cx="281" cy="154.7" r="4.1"/>
			<circle style="fill:#E72035;" cx="292.8" cy="150.4" r="4.1"/>
		</g>
		<g style="opacity:0.72;">
			<circle style="fill:#E72035;" cx="247.3" cy="86.1" r="4.9"/>
			<circle style="fill:#E72035;" cx="237.5" cy="97.5" r="4.9"/>
			<circle style="fill:#E72035;" cx="232.3" cy="111.7" r="4.9"/>
			<circle style="fill:#E72035;" cx="232.3" cy="126.7" r="4.9"/>
			<circle style="fill:#E72035;" cx="237.5" cy="140.9" r="4.9"/>
			<circle style="fill:#E72035;" cx="247.3" cy="152.3" r="4.9"/>
			<circle style="fill:#E72035;" cx="260.1" cy="159.6" r="4.9"/>
			<circle style="fill:#E72035;" cx="274.8" cy="162.4" r="4.9"/>
			<circle style="fill:#E72035;" cx="289.8" cy="159.6" r="4.9"/>
		</g>
		<g style="opacity:0.79;">
			<circle style="fill:#E72035;" cx="248.9" cy="74.4" r="5.7"/>
			<circle style="fill:#E72035;" cx="235.3" cy="85.8" r="5.7"/>
			<circle style="fill:#E72035;" cx="226.3" cy="101.3" r="5.7"/>
			<circle style="fill:#E72035;" cx="223" cy="119.3" r="5.7"/>
			<circle style="fill:#E72035;" cx="226.3" cy="137" r="5.7"/>
			<circle style="fill:#E72035;" cx="235.3" cy="152.6" r="5.7"/>
			<circle style="fill:#E72035;" cx="248.9" cy="164" r="5.7"/>
			<circle style="fill:#E72035;" cx="265.8" cy="170.3" r="5.7"/>
			<circle style="fill:#E72035;" cx="283.8" cy="170.3" r="5.7"/>
		</g>
		<g style="opacity:0.86;">
			<circle style="fill:#E72035;" cx="253.5" cy="60.8" r="6.8"/>
			<circle style="fill:#E72035;" cx="235" cy="71.7" r="6.8"/>
			<circle style="fill:#E72035;" cx="221.1" cy="88" r="6.8"/>
			<circle style="fill:#E72035;" cx="213.8" cy="108.4" r="6.8"/>
			<circle style="fill:#E72035;" cx="213.8" cy="130" r="6.8"/>
			<circle style="fill:#E72035;" cx="221.1" cy="150.4" r="6.8"/>
			<circle style="fill:#E72035;" cx="235" cy="166.7" r="6.8"/>
			<circle style="fill:#E72035;" cx="253.5" cy="177.6" r="6.8"/>
			<circle style="fill:#E72035;" cx="274.8" cy="181.4" r="6.8"/>
		</g>
		<g style="opacity:0.93;">
			<circle style="fill:#E72035;" cx="262" cy="45.8" r="8.2"/>
			<circle style="fill:#E72035;" cx="237.5" cy="54.5" r="8.2"/>
			<circle style="fill:#E72035;" cx="217.8" cy="71.4" r="8.2"/>
			<circle style="fill:#E72035;" cx="204.8" cy="93.7" r="8.2"/>
			<circle style="fill:#E72035;" cx="200.4" cy="119.3" r="8.2"/>
			<circle style="fill:#E72035;" cx="204.8" cy="144.7" r="8.2"/>
			<circle style="fill:#E72035;" cx="217.8" cy="167.3" r="8.2"/>
			<circle style="fill:#E72035;" cx="237.5" cy="183.9" r="8.2"/>
			<circle style="fill:#E72035;" cx="262" cy="192.6" r="8.2"/>
		</g>
		<g>
			<circle style="fill:#E72035;" cx="244.3" cy="35.1" r="9.8"/>
			<circle style="fill:#E72035;" cx="217.3" cy="50.7" r="9.8"/>
			<circle style="fill:#E72035;" cx="197.4" cy="74.4" r="9.8"/>
			<circle style="fill:#E72035;" cx="186.8" cy="103.5" r="9.8"/>
			<circle style="fill:#E72035;" cx="186.8" cy="134.9" r="9.8"/>
			<circle style="fill:#E72035;" cx="197.4" cy="164" r="9.8"/>
			<circle style="fill:#E72035;" cx="217.3" cy="187.7" r="9.8"/>
			<circle style="fill:#E72035;" cx="244.3" cy="203.2" r="9.8"/>
			<circle style="fill:#E72035;" cx="274.8" cy="29.7" r="9.8"/>
		</g>
		<g>
			<circle style="fill:#E72035;" cx="256.3" cy="13.3" r="12"/>
			<circle style="fill:#E72035;" cx="221.1" cy="26.2" r="12"/>
			<circle style="fill:#E72035;" cx="192.5" cy="50.1" r="12"/>
			<circle style="fill:#E72035;" cx="174" cy="82.5" r="12"/>
			<circle style="fill:#E72035;" cx="167.4" cy="119.3" r="12"/>
			<circle style="fill:#E72035;" cx="174" cy="155.8" r="12"/>
			<circle style="fill:#E72035;" cx="192.5" cy="188.3" r="12"/>
			<circle style="fill:#E72035;" cx="221.1" cy="212.2" r="12"/>
			<circle style="fill:#E72035;" cx="293.6" cy="13.3" r="12"/>
		</g>
	</g>
	<g style="opacity:0.6;">
		<g style="opacity:0.51;">
			<circle style="fill:#E72035;" cx="270.4" cy="94.5" r="2.7"/>
			<circle style="fill:#E72035;" cx="287.3" cy="97.5" r="2.7"/>
			<circle style="fill:#E72035;" cx="279.1" cy="94.5" r="2.7"/>
		</g>
		<g style="opacity:0.58;">
			<circle style="fill:#E72035;" cx="294.1" cy="96.2" r="3.3"/>
			<circle style="fill:#E72035;" cx="285.1" cy="91" r="3.3"/>
			<circle style="fill:#E72035;" cx="274.8" cy="89.1" r="3.3"/>
		</g>
		<g style="opacity:0.65;">
			<circle style="fill:#E72035;" cx="302.6" cy="96.2" r="4.1"/>
			<circle style="fill:#E72035;" cx="292.8" cy="88" r="4.1"/>
			<circle style="fill:#E72035;" cx="281" cy="83.6" r="4.1"/>
		</g>
		<g style="opacity:0.72;">
			<circle style="fill:#E72035;" cx="312.4" cy="97.5" r="4.9"/>
			<circle style="fill:#E72035;" cx="302.6" cy="86.1" r="4.9"/>
			<circle style="fill:#E72035;" cx="289.8" cy="78.7" r="4.9"/>
		</g>
		<g style="opacity:0.79;">
			<circle style="fill:#E72035;" cx="323.5" cy="101.3" r="5.7"/>
			<circle style="fill:#E72035;" cx="314.6" cy="85.8" r="5.7"/>
			<circle style="fill:#E72035;" cx="300.7" cy="74.4" r="5.7"/>
		</g>
		<g style="opacity:0.86;">
			<circle style="fill:#E72035;" cx="336.1" cy="108.4" r="6.8"/>
			<circle style="fill:#E72035;" cx="328.7" cy="88" r="6.8"/>
			<circle style="fill:#E72035;" cx="314.8" cy="71.7" r="6.8"/>
		</g>
		<g style="opacity:0.93;">
			<circle style="fill:#E72035;" cx="349.4" cy="119.3" r="8.2"/>
			<circle style="fill:#E72035;" cx="345.1" cy="93.7" r="8.2"/>
			<circle style="fill:#E72035;" cx="332" cy="71.4" r="8.2"/>
		</g>
		<g>
			<circle style="fill:#E72035;" cx="363.1" cy="134.9" r="9.8"/>
			<circle style="fill:#E72035;" cx="363.1" cy="103.5" r="9.8"/>
			<circle style="fill:#E72035;" cx="352.4" cy="74.4" r="9.8"/>
		</g>
		<g>
			<circle style="fill:#E72035;" cx="375.9" cy="155.8" r="12"/>
			<circle style="fill:#E72035;" cx="382.4" cy="119.3" r="12"/>
			<circle style="fill:#E72035;" cx="375.9" cy="82.5" r="12"/>
		</g>
	</g>
	<g style="opacity:0.4;">
		<g style="opacity:0.51;">
			<circle style="fill:#E72035;" cx="262.5" cy="97.5" r="2.7"/>
			<circle style="fill:#E72035;" cx="255.7" cy="103.3" r="2.7"/>
		</g>
		<g style="opacity:0.58;">
			<circle style="fill:#E72035;" cx="264.7" cy="91" r="3.3"/>
			<circle style="fill:#E72035;" cx="255.7" cy="96.2" r="3.3"/>
		</g>
		<g style="opacity:0.65;">
			<circle style="fill:#E72035;" cx="268.5" cy="83.6" r="4.1"/>
			<circle style="fill:#E72035;" cx="256.8" cy="88" r="4.1"/>
		</g>
		<g style="opacity:0.72;">
			<circle style="fill:#E72035;" cx="260.1" cy="78.7" r="4.9"/>
			<circle style="fill:#E72035;" cx="274.8" cy="76" r="4.9"/>
		</g>
		<g style="opacity:0.79;">
			<circle style="fill:#E72035;" cx="265.8" cy="68.1" r="5.7"/>
			<circle style="fill:#E72035;" cx="283.8" cy="68.1" r="5.7"/>
		</g>
		<g style="opacity:0.86;">
			<circle style="fill:#E72035;" cx="296" cy="60.8" r="6.8"/>
			<circle style="fill:#E72035;" cx="274.8" cy="56.9" r="6.8"/>
		</g>
		<g style="opacity:0.93;">
			<circle style="fill:#E72035;" cx="312.1" cy="54.5" r="8.2"/>
			<circle style="fill:#E72035;" cx="287.9" cy="45.8" r="8.2"/>
		</g>
		<g>
			<circle style="fill:#E72035;" cx="332.5" cy="50.7" r="9.8"/>
			<circle style="fill:#E72035;" cx="305.6" cy="35.1" r="9.8"/>
		</g>
		<g>
			<circle style="fill:#E72035;" cx="357.1" cy="50.1" r="12"/>
			<circle style="fill:#E72035;" cx="328.7" cy="26.2" r="12"/>
		</g>
	</g>
	<g style="opacity:0.8;">
		<g style="opacity:0.51;">
			<circle style="fill:#E72035;" cx="298.5" cy="127.8" r="2.7"/>
			<circle style="fill:#E72035;" cx="299.8" cy="119.3" r="2.7"/>
			<circle style="fill:#E72035;" cx="298.5" cy="110.6" r="2.7"/>
			<circle style="fill:#E72035;" cx="294.1" cy="103.3" r="2.7"/>
		</g>
		<g style="opacity:0.58;">
			<circle style="fill:#E72035;" cx="300.9" cy="134.3" r="3.3"/>
			<circle style="fill:#E72035;" cx="304.5" cy="124.5" r="3.3"/>
			<circle style="fill:#E72035;" cx="304.5" cy="113.9" r="3.3"/>
			<circle style="fill:#E72035;" cx="300.9" cy="104.3" r="3.3"/>
		</g>
		<g style="opacity:0.65;">
			<circle style="fill:#E72035;" cx="302.6" cy="142.2" r="4.1"/>
			<circle style="fill:#E72035;" cx="308.6" cy="131.6" r="4.1"/>
			<circle style="fill:#E72035;" cx="310.7" cy="119.3" r="4.1"/>
			<circle style="fill:#E72035;" cx="308.6" cy="106.8" r="4.1"/>
		</g>
		<g style="opacity:0.72;">
			<circle style="fill:#E72035;" cx="302.6" cy="152.3" r="4.9"/>
			<circle style="fill:#E72035;" cx="312.4" cy="140.9" r="4.9"/>
			<circle style="fill:#E72035;" cx="317.3" cy="126.7" r="4.9"/>
			<circle style="fill:#E72035;" cx="317.3" cy="111.7" r="4.9"/>
		</g>
		<g style="opacity:0.79;">
			<circle style="fill:#E72035;" cx="300.7" cy="164" r="5.7"/>
			<circle style="fill:#E72035;" cx="314.6" cy="152.6" r="5.7"/>
			<circle style="fill:#E72035;" cx="323.5" cy="137" r="5.7"/>
			<circle style="fill:#E72035;" cx="326.8" cy="119.3" r="5.7"/>
		</g>
		<g style="opacity:0.86;">
			<circle style="fill:#E72035;" cx="296" cy="177.6" r="6.8"/>
			<circle style="fill:#E72035;" cx="314.8" cy="166.7" r="6.8"/>
			<circle style="fill:#E72035;" cx="328.7" cy="150.4" r="6.8"/>
			<circle style="fill:#E72035;" cx="336.1" cy="130" r="6.8"/>
		</g>
		<g style="opacity:0.93;">
			<circle style="fill:#E72035;" cx="287.9" cy="192.6" r="8.2"/>
			<circle style="fill:#E72035;" cx="312.1" cy="183.9" r="8.2"/>
			<circle style="fill:#E72035;" cx="332" cy="167.3" r="8.2"/>
			<circle style="fill:#E72035;" cx="345.1" cy="144.7" r="8.2"/>
		</g>
		<g>
			<circle style="fill:#E72035;" cx="274.8" cy="208.7" r="9.8"/>
			<circle style="fill:#E72035;" cx="305.6" cy="203.2" r="9.8"/>
			<circle style="fill:#E72035;" cx="332.5" cy="187.7" r="9.8"/>
			<circle style="fill:#E72035;" cx="352.4" cy="164" r="9.8"/>
		</g>
		<g>
			<circle style="fill:#E72035;" cx="256.3" cy="225" r="12"/>
			<circle style="fill:#E72035;" cx="293.6" cy="225" r="12"/>
			<circle style="fill:#E72035;" cx="328.7" cy="212.2" r="12"/>
			<circle style="fill:#E72035;" cx="357.1" cy="188.3" r="12"/>
		</g>
	</g>
</g>
<g style="enable-background:new    ;">
	<path style="fill:#191A1A;" d="M219.6,368.1l-13.1-52.5h-0.2l-12.8,52.5h-17.2L155.9,291h16.9l12.2,52.5h0.2l13.4-52.5h15.9
		l13.2,53.1h0.2l12.6-53.1h16.6l-20.7,77.1H219.6z"/>
	<path style="fill:#191A1A;" d="M273.5,354.7c2.3,2.2,5.6,3.3,9.9,3.3c3.1,0,5.8-0.8,8-2.3c2.2-1.5,3.6-3.2,4.1-4.9H309
		c-2.2,6.7-5.5,11.5-9.9,14.4c-4.5,2.9-9.9,4.3-16.2,4.3c-4.4,0-8.3-0.7-11.9-2.1c-3.5-1.4-6.5-3.4-9-6c-2.4-2.6-4.3-5.7-5.7-9.3
		c-1.3-3.6-2-7.6-2-11.9c0-4.2,0.7-8.1,2.1-11.7c1.4-3.6,3.3-6.7,5.8-9.3c2.5-2.6,5.5-4.7,9-6.2c3.5-1.5,7.4-2.3,11.6-2.3
		c4.7,0,8.9,0.9,12.4,2.8c3.5,1.8,6.4,4.3,8.7,7.4c2.3,3.1,3.9,6.6,4.9,10.6c1,4,1.4,8.1,1.1,12.4h-40.3
		C270,348.9,271.2,352.5,273.5,354.7z M290.9,325.3c-1.8-2-4.6-3-8.4-3c-2.4,0-4.5,0.4-6.1,1.2c-1.6,0.8-2.9,1.9-3.9,3.1
		c-1,1.2-1.7,2.5-2.1,3.9c-0.4,1.4-0.6,2.6-0.7,3.7h24.9C294,330.3,292.7,327.4,290.9,325.3z"/>
	<path style="fill:#191A1A;" d="M334.4,291v28.1h0.2c1.9-2.9,4.4-5,7.6-6.3c3.2-1.3,6.5-2,10-2c2.8,0,5.6,0.6,8.3,1.7
		c2.7,1.2,5.2,2.9,7.4,5.3c2.2,2.4,4,5.4,5.3,9.1c1.4,3.7,2.1,8.1,2.1,13.2c0,5.1-0.7,9.5-2.1,13.2c-1.4,3.7-3.1,6.7-5.3,9.1
		c-2.2,2.4-4.7,4.1-7.4,5.3c-2.7,1.2-5.5,1.7-8.3,1.7c-4.1,0-7.8-0.6-11-1.9c-3.2-1.3-5.7-3.5-7.3-6.6h-0.2v7.1h-14.6v-77H334.4z
		 M359.2,333.4c-0.5-2.2-1.3-4.1-2.4-5.7c-1.1-1.7-2.4-3-4-3.9s-3.6-1.5-5.9-1.5c-2.2,0-4.2,0.5-5.8,1.5c-1.7,1-3,2.3-4.1,3.9
		c-1.1,1.7-1.9,3.6-2.4,5.7c-0.5,2.2-0.8,4.4-0.8,6.8c0,2.3,0.3,4.5,0.8,6.7c0.5,2.2,1.3,4.1,2.4,5.7c1.1,1.7,2.4,3,4.1,3.9
		c1.7,1,3.6,1.5,5.8,1.5c2.3,0,4.3-0.5,5.9-1.5s3-2.3,4-3.9c1.1-1.7,1.9-3.6,2.4-5.7c0.5-2.2,0.8-4.4,0.8-6.7
		S359.7,335.6,359.2,333.4z"/>
	<path style="fill:#191A1A;" d="M428.2,291c3.5,0,6.6,0.6,9.3,1.7c2.8,1.1,5.1,2.6,7.1,4.6c2,1.9,3.5,4.2,4.5,6.7
		c1,2.6,1.6,5.3,1.6,8.3c0,4.5-1,8.5-2.9,11.8c-1.9,3.3-5,5.8-9.3,7.6v0.2c2.1,0.6,3.8,1.5,5.2,2.6c1.4,1.2,2.5,2.6,3.3,4.2
		c0.8,1.6,1.5,3.4,1.9,5.3c0.4,1.9,0.7,3.9,0.8,5.8c0.1,1.2,0.1,2.7,0.2,4.3c0.1,1.7,0.2,3.3,0.4,5.1c0.2,1.7,0.5,3.4,0.9,4.9
		c0.4,1.5,1,2.9,1.8,3.9h-16.9c-0.9-2.4-1.5-5.4-1.7-8.7c-0.2-3.4-0.5-6.6-1-9.7c-0.6-4-1.8-7-3.7-8.9c-1.9-1.9-4.9-2.8-9.2-2.8
		h-16.9V368h-16.9v-77H428.2z M422.2,325.9c3.9,0,6.8-0.9,8.7-2.6c1.9-1.7,2.9-4.5,2.9-8.4c0-3.7-1-6.5-2.9-8.1
		c-1.9-1.7-4.9-2.5-8.7-2.5h-18.6V326h18.6V325.9z"/>
	<path style="fill:#191A1A;" d="M456.6,305.3V291h63.1v14.2h-23.1V368h-16.9v-62.8L456.6,305.3L456.6,305.3z"/>
	<path style="fill:#191A1A;" d="M578,311.6c-1-1.6-2.3-3-3.8-4.3c-1.5-1.2-3.2-2.2-5.1-2.9c-1.9-0.7-3.9-1-6-1
		c-3.8,0-7.1,0.7-9.7,2.2c-2.7,1.5-4.8,3.5-6.5,5.9c-1.7,2.5-2.9,5.3-3.6,8.5c-0.8,3.2-1.1,6.4-1.1,9.8c0,3.2,0.4,6.4,1.1,9.4
		c0.8,3.1,2,5.8,3.6,8.3c1.7,2.4,3.8,4.4,6.5,5.9c2.7,1.5,5.9,2.2,9.7,2.2c5.2,0,9.2-1.6,12.1-4.8c2.9-3.2,4.7-7.3,5.3-12.5H597
		c-0.4,4.8-1.5,9.2-3.3,13.1c-1.8,3.9-4.2,7.2-7.1,9.9c-3,2.7-6.4,4.8-10.4,6.3c-4,1.4-8.3,2.2-13.1,2.2c-5.9,0-11.2-1-15.9-3.1
		c-4.7-2.1-8.7-4.9-11.9-8.5s-5.7-7.8-7.4-12.7s-2.6-10.1-2.6-15.7c0-5.8,0.9-11.1,2.6-16c1.7-4.9,4.2-9.2,7.4-12.9
		s7.2-6.5,11.9-8.6c4.7-2.1,10-3.1,15.9-3.1c4.2,0,8.3,0.6,12,1.8c3.8,1.2,7.2,3,10.1,5.3c3,2.3,5.5,5.2,7.4,8.7s3.2,7.4,3.7,11.9
		H580C579.7,315,579,313.2,578,311.6z"/>
</g>
<g style="enable-background:new    ;">
	<path style="fill:#A6ACAF;" d="M216.5,409.9c-1.5-2.3-3.3-4.3-5.4-5.9c-2.1-1.6-4.5-2.8-7-3.6c-2.6-0.8-5.2-1.2-8-1.2
		c-5.1,0-9.5,1-13.2,2.9c-3.7,1.9-6.7,4.5-9,7.7c-2.3,3.2-4.1,6.8-5.2,10.8c-1.1,4-1.7,8.2-1.7,12.4s0.6,8.3,1.7,12.4
		c1.1,4.1,2.8,7.7,5.2,10.9c2.3,3.2,5.3,5.8,9,7.7c3.7,1.9,8.1,2.9,13.2,2.9c3.6,0,6.8-0.6,9.7-1.9c2.9-1.3,5.4-3.1,7.4-5.3
		c2.1-2.2,3.8-4.8,5.1-7.8s2.1-6.2,2.5-9.7h7.3c-0.5,4.7-1.6,9-3.3,12.8c-1.7,3.8-4,7.1-6.7,9.7c-2.7,2.7-6,4.7-9.7,6.2
		c-3.7,1.4-7.8,2.2-12.4,2.2c-6,0-11.4-1.1-15.9-3.3c-4.6-2.2-8.4-5.1-11.4-8.8c-3-3.7-5.3-7.9-6.8-12.7c-1.5-4.8-2.3-9.9-2.3-15.2
		s0.8-10.4,2.3-15.2c1.5-4.8,3.8-9.1,6.8-12.8c3-3.7,6.8-6.7,11.4-8.9c4.6-2.2,9.9-3.3,15.9-3.3c3.7,0,7.2,0.5,10.7,1.6
		c3.5,1.1,6.7,2.7,9.5,4.8c2.8,2.1,5.2,4.7,7.1,7.8c1.9,3.1,3.1,6.7,3.6,10.7h-7.3C219,414.9,218,412.3,216.5,409.9z"/>
	<path style="fill:#A6ACAF;" d="M272.8,416.7c3.3,1.6,6,3.7,8.3,6.4c2.2,2.7,3.9,5.8,5.1,9.3c1.1,3.6,1.7,7.4,1.7,11.4
		s-0.6,7.8-1.7,11.4c-1.2,3.6-2.8,6.7-5.1,9.3c-2.2,2.7-5,4.8-8.3,6.3c-3.3,1.5-7,2.3-11.3,2.3c-4.2,0-8-0.8-11.3-2.3
		c-3.3-1.5-6-3.7-8.3-6.3c-2.2-2.7-3.9-5.8-5.1-9.3c-1.2-3.6-1.7-7.4-1.7-11.4s0.6-7.8,1.7-11.4c1.2-3.6,2.8-6.7,5.1-9.3
		c2.2-2.7,5-4.8,8.3-6.4c3.3-1.6,7-2.4,11.3-2.4C265.8,414.3,269.6,415.1,272.8,416.7z M253,422.1c-2.4,1.4-4.5,3.2-6.1,5.4
		c-1.6,2.2-2.8,4.8-3.7,7.6c-0.8,2.8-1.2,5.7-1.2,8.7s0.4,5.8,1.2,8.7c0.8,2.8,2.1,5.4,3.7,7.6s3.7,4,6.1,5.4
		c2.4,1.4,5.3,2.1,8.5,2.1c3.2,0,6.1-0.7,8.5-2.1c2.4-1.4,4.5-3.2,6.1-5.4c1.6-2.2,2.8-4.8,3.7-7.6c0.8-2.8,1.2-5.7,1.2-8.7
		c0-2.9-0.4-5.8-1.2-8.7c-0.8-2.8-2.1-5.4-3.7-7.6c-1.6-2.2-3.7-4-6.1-5.4c-2.4-1.4-5.3-2.1-8.5-2.1
		C258.3,420,255.5,420.7,253,422.1z"/>
	<path style="fill:#A6ACAF;" d="M304.7,415.9v9.6h0.2c1.3-3.4,3.6-6.1,6.9-8.1c3.3-2.1,6.9-3.1,10.9-3.1c3.9,0,7.1,0.5,9.8,1.5
		c2.6,1,4.7,2.4,6.3,4.3c1.6,1.8,2.7,4.1,3.3,6.7c0.6,2.7,1,5.6,1,9v35.8h-6.8v-34.8c0-2.4-0.2-4.6-0.6-6.6
		c-0.4-2.1-1.2-3.8-2.3-5.3c-1.1-1.5-2.5-2.7-4.4-3.6c-1.8-0.9-4.1-1.3-6.9-1.3c-2.7,0-5.2,0.5-7.3,1.5s-3.9,2.3-5.4,4
		c-1.5,1.7-2.6,3.7-3.5,6c-0.8,2.3-1.3,4.9-1.3,7.6v32.5h-6.8v-55.7H304.7z"/>
	<path style="fill:#A6ACAF;" d="M366.5,421.6v50h-6.8v-50h-9.5v-5.7h9.5v-5.1c0-2.4,0.2-4.6,0.5-6.6c0.4-2,1-3.7,2.1-5.2
		c1-1.4,2.4-2.6,4.2-3.3c1.8-0.8,4-1.2,6.7-1.2c1,0,1.9,0,2.8,0.1s1.8,0.2,2.9,0.3v5.8c-0.9-0.1-1.8-0.3-2.6-0.4
		c-0.8-0.1-1.6-0.2-2.4-0.2c-1.9,0-3.3,0.3-4.3,0.9s-1.7,1.3-2.2,2.3c-0.5,1-0.7,2.1-0.8,3.4c-0.1,1.3-0.1,2.7-0.1,4.2v4.9h11v5.7
		h-11V421.6z"/>
	<path style="fill:#A6ACAF;" d="M389,453.2c0.7,2.6,1.8,5,3.3,7.1c1.5,2.1,3.4,3.8,5.7,5.2s5.1,2.1,8.3,2.1c5,0,8.9-1.3,11.7-3.9
		c2.8-2.6,4.7-6,5.8-10.4h6.8c-1.4,6.3-4.1,11.2-7.9,14.7c-3.9,3.5-9.3,5.2-16.4,5.2c-4.4,0-8.2-0.8-11.4-2.3
		c-3.2-1.5-5.8-3.7-7.8-6.4c-2-2.7-3.5-5.8-4.5-9.4c-1-3.6-1.5-7.3-1.5-11.3c0-3.7,0.5-7.3,1.5-10.8s2.5-6.7,4.5-9.4
		c2-2.8,4.6-5,7.8-6.7c3.2-1.7,7-2.5,11.4-2.5c4.5,0,8.3,0.9,11.4,2.7c3.2,1.8,5.7,4.2,7.7,7.1c2,2.9,3.4,6.3,4.3,10
		c0.9,3.8,1.2,7.6,1.1,11.5h-42.9C387.9,448.1,388.3,450.6,389,453.2z M422.6,432.4c-0.8-2.4-2-4.5-3.5-6.3s-3.3-3.3-5.5-4.4
		s-4.6-1.7-7.3-1.7c-2.8,0-5.3,0.6-7.4,1.7c-2.2,1.1-4,2.6-5.5,4.4c-1.5,1.8-2.7,4-3.6,6.4c-0.9,2.4-1.5,4.9-1.8,7.4h36
		C423.9,437.3,423.5,434.8,422.6,432.4z"/>
	<path style="fill:#A6ACAF;" d="M446.2,415.9V429h0.2c1.7-4.5,4.4-8,8-10.5c3.6-2.4,8-3.6,13-3.3v6.8c-3.1-0.1-5.9,0.3-8.4,1.2
		c-2.5,1-4.7,2.4-6.5,4.2c-1.8,1.8-3.3,3.9-4.3,6.4s-1.5,5.2-1.5,8.1v29.7H440v-55.7L446.2,415.9L446.2,415.9z"/>
	<path style="fill:#A6ACAF;" d="M477.1,453.2c0.7,2.6,1.8,5,3.3,7.1c1.5,2.1,3.4,3.8,5.7,5.2s5.1,2.1,8.3,2.1c5,0,8.9-1.3,11.7-3.9
		s4.7-6,5.8-10.4h6.8c-1.4,6.3-4.1,11.2-7.9,14.7c-3.9,3.5-9.3,5.2-16.4,5.2c-4.4,0-8.2-0.8-11.4-2.3c-3.2-1.5-5.8-3.7-7.8-6.4
		c-2-2.7-3.5-5.8-4.5-9.4c-1-3.6-1.5-7.3-1.5-11.3c0-3.7,0.5-7.3,1.5-10.8s2.5-6.7,4.5-9.4c2-2.8,4.6-5,7.8-6.7
		c3.2-1.7,7-2.5,11.4-2.5c4.5,0,8.3,0.9,11.4,2.7c3.2,1.8,5.7,4.2,7.7,7.1c2,2.9,3.4,6.3,4.3,10c0.9,3.8,1.2,7.6,1.1,11.5H476
		C476,448.1,476.4,450.6,477.1,453.2z M510.7,432.4c-0.8-2.4-2-4.5-3.5-6.3c-1.5-1.8-3.3-3.3-5.5-4.4c-2.2-1.1-4.6-1.7-7.3-1.7
		c-2.8,0-5.3,0.6-7.4,1.7c-2.2,1.1-4,2.6-5.5,4.4c-1.5,1.8-2.7,4-3.6,6.4c-0.9,2.4-1.5,4.9-1.8,7.4h36.1
		C512,437.3,511.6,434.8,510.7,432.4z"/>
	<path style="fill:#A6ACAF;" d="M534.7,415.9v9.6h0.2c1.3-3.4,3.6-6.1,6.9-8.1c3.3-2.1,6.9-3.1,10.9-3.1c3.9,0,7.1,0.5,9.8,1.5
		c2.6,1,4.7,2.4,6.3,4.3c1.6,1.8,2.7,4.1,3.3,6.7c0.6,2.7,1,5.6,1,9v35.8h-6.8v-34.8c0-2.4-0.2-4.6-0.6-6.6
		c-0.4-2.1-1.2-3.8-2.3-5.3c-1.1-1.5-2.5-2.7-4.4-3.6c-1.8-0.9-4.1-1.3-6.9-1.3c-2.7,0-5.2,0.5-7.3,1.5s-3.9,2.3-5.4,4
		s-2.6,3.7-3.5,6c-0.8,2.3-1.3,4.9-1.3,7.6v32.5h-6.8v-55.7H534.7z"/>
	<path style="fill:#A6ACAF;" d="M620.1,423.6c-2.5-2.4-6-3.6-10.6-3.6c-3.2,0-6.1,0.7-8.5,2.1c-2.4,1.4-4.5,3.2-6.1,5.4
		c-1.6,2.2-2.8,4.8-3.7,7.6c-0.8,2.8-1.2,5.7-1.2,8.7s0.4,5.8,1.2,8.7c0.8,2.8,2.1,5.4,3.7,7.6c1.6,2.2,3.7,4,6.1,5.4
		c2.4,1.4,5.3,2.1,8.5,2.1c2.1,0,4.1-0.4,5.9-1.2c1.9-0.8,3.5-1.9,5-3.3c1.4-1.4,2.6-3.1,3.6-5c0.9-1.9,1.5-4.1,1.7-6.4h6.8
		c-0.9,6.8-3.4,12-7.4,15.8s-9.2,5.7-15.5,5.7c-4.2,0-8-0.8-11.3-2.3c-3.3-1.5-6-3.7-8.3-6.3c-2.2-2.7-3.9-5.8-5.1-9.3
		c-1.2-3.6-1.7-7.4-1.7-11.4c0-4,0.6-7.8,1.7-11.4c1.2-3.6,2.8-6.7,5.1-9.3c2.2-2.7,5-4.8,8.3-6.4c3.3-1.6,7-2.4,11.3-2.4
		c6,0,11,1.6,15.2,4.7c4.1,3.2,6.6,8,7.4,14.4h-6.8C624.4,429.2,622.6,426,620.1,423.6z"/>
	<path style="fill:#A6ACAF;" d="M647.1,453.2c0.7,2.6,1.8,5,3.3,7.1c1.5,2.1,3.4,3.8,5.7,5.2s5.1,2.1,8.3,2.1c5,0,8.9-1.3,11.7-3.9
		c2.8-2.6,4.7-6,5.8-10.4h6.8c-1.4,6.3-4.1,11.2-7.9,14.7c-3.9,3.5-9.3,5.2-16.4,5.2c-4.4,0-8.2-0.8-11.4-2.3
		c-3.2-1.5-5.8-3.7-7.8-6.4c-2-2.7-3.5-5.8-4.5-9.4c-1-3.6-1.5-7.3-1.5-11.3c0-3.7,0.5-7.3,1.5-10.8c1-3.5,2.5-6.7,4.5-9.4
		c2-2.8,4.6-5,7.8-6.7c3.2-1.7,7-2.5,11.4-2.5c4.5,0,8.3,0.9,11.4,2.7c3.2,1.8,5.7,4.2,7.7,7.1c2,2.9,3.4,6.3,4.3,10
		c0.9,3.8,1.2,7.6,1.1,11.5H646C646,448.1,646.4,450.6,647.1,453.2z M680.7,432.4c-0.8-2.4-2-4.5-3.5-6.3c-1.5-1.8-3.3-3.3-5.5-4.4
		c-2.2-1.1-4.6-1.7-7.3-1.7c-2.8,0-5.3,0.6-7.4,1.7c-2.2,1.1-4,2.6-5.5,4.4c-1.5,1.8-2.7,4-3.6,6.4c-0.9,2.4-1.5,4.9-1.8,7.4h36.1
		C682,437.3,681.6,434.8,680.7,432.4z"/>
</g>
<g style="enable-background:new    ;">
	<path style="fill:#E72035;" d="M207.4,559.2c-0.5,3-1.7,5.8-3.5,8.5c-1.8,2.6-4.4,4.8-7.8,6.6c-3.4,1.8-8,2.6-13.7,2.6
		c-3.2,0-6.4-0.5-9.4-1.3c-3-0.9-5.7-2.3-8.1-4.2c-2.4-1.9-4.3-4.4-5.7-7.3c-1.4-3-2.2-6.6-2.2-10.8v-6.7h15.3v3.5
		c0,1.9,0.1,3.6,0.4,5.2c0.3,1.6,0.8,2.9,1.5,4c0.7,1.1,1.7,2,3,2.6s2.9,1,4.9,1c2.2,0,4-0.4,5.2-1.2c1.2-0.8,2.1-1.8,2.6-3.1
		s0.9-2.6,1-4.1s0.2-2.9,0.2-4.3v-52H208V551C208.1,553.4,207.9,556.2,207.4,559.2z"/>
	<path style="fill:#E72035;" d="M220.7,536.5c0.2-3.6,1.1-6.6,2.7-9s3.6-4.3,6-5.7c2.4-1.4,5.2-2.5,8.3-3.1s6.1-0.9,9.2-0.9
		c2.8,0,5.6,0.2,8.5,0.6c2.9,0.4,5.5,1.2,7.9,2.3c2.4,1.2,4.3,2.8,5.8,4.8c1.5,2,2.3,4.8,2.3,8.1v29c0,2.5,0.1,4.9,0.4,7.2
		c0.3,2.3,0.8,4,1.5,5.2h-15.5c-0.3-0.9-0.5-1.7-0.7-2.6s-0.3-1.8-0.4-2.8c-2.4,2.5-5.3,4.3-8.6,5.3c-3.3,1-6.7,1.5-10.1,1.5
		c-2.7,0-5.1-0.3-7.4-1c-2.3-0.6-4.3-1.7-6-3c-1.7-1.4-3.1-3.1-4-5.2c-1-2.1-1.5-4.6-1.5-7.4c0-3.2,0.6-5.8,1.7-7.8
		c1.1-2.1,2.6-3.7,4.3-4.9c1.8-1.2,3.8-2.1,6-2.8c2.3-0.6,4.6-1.1,6.9-1.5c2.3-0.4,4.6-0.6,6.8-0.9c2.2-0.2,4.2-0.5,5.9-1
		c1.7-0.5,3.1-1.1,4.1-1.9c1-0.8,1.5-2,1.4-3.6c0-1.7-0.3-3-0.8-3.9c-0.5-1-1.3-1.7-2.2-2.3c-0.9-0.5-1.9-0.9-3.1-1.1
		c-1.2-0.2-2.5-0.3-3.8-0.3c-3,0-5.4,0.6-7.1,1.9c-1.7,1.3-2.7,3.5-3,6.5h-15.5V536.5z M256.1,547.8c-0.6,0.6-1.5,1-2.4,1.3
		c-1,0.3-2,0.6-3.1,0.8c-1.1,0.2-2.3,0.4-3.5,0.5c-1.2,0.1-2.4,0.3-3.7,0.5c-1.2,0.2-2.3,0.5-3.4,0.9c-1.1,0.4-2.1,0.8-2.9,1.5
		c-0.8,0.6-1.5,1.4-2,2.3s-0.8,2.1-0.8,3.6c0,1.4,0.3,2.5,0.8,3.5c0.5,0.9,1.2,1.7,2.1,2.2c0.9,0.5,1.9,0.9,3,1.1
		c1.2,0.2,2.3,0.3,3.6,0.3c3,0,5.4-0.5,7-1.5c1.7-1,2.9-2.2,3.7-3.6c0.8-1.4,1.3-2.8,1.5-4.3c0.2-1.4,0.3-2.6,0.3-3.5v-5.6H256.1z"
		/>
	<path style="fill:#E72035;" d="M297.9,519.3v7.1h0.2c1.9-3,4.2-5.2,7.1-6.6c2.9-1.4,6-2.1,9.5-2.1c4.4,0,8.2,0.8,11.3,2.5
		c3.2,1.7,5.8,3.9,7.9,6.6c2.1,2.7,3.6,5.9,4.6,9.6c1,3.6,1.5,7.4,1.5,11.4c0,3.7-0.5,7.3-1.5,10.8c-1,3.5-2.5,6.5-4.6,9.2
		c-2.1,2.7-4.6,4.8-7.7,6.4s-6.6,2.4-10.7,2.4c-3.5,0-6.6-0.7-9.6-2.1c-2.9-1.4-5.3-3.5-7.2-6.2h-0.2v26.4h-15.3v-75.3h14.7V519.3z
		 M317.8,563.6c1.7-1,3.1-2.3,4.1-3.9c1-1.6,1.8-3.5,2.2-5.7c0.4-2.2,0.6-4.4,0.6-6.6c0-2.2-0.2-4.4-0.7-6.6
		c-0.5-2.2-1.2-4.1-2.3-5.8c-1.1-1.7-2.5-3.1-4.2-4.1c-1.7-1-3.8-1.6-6.2-1.6c-2.5,0-4.6,0.5-6.3,1.6c-1.7,1-3.1,2.4-4.1,4
		c-1,1.7-1.8,3.6-2.2,5.7c-0.4,2.1-0.6,4.4-0.6,6.7c0,2.2,0.2,4.4,0.7,6.6s1.2,4,2.3,5.7c1,1.6,2.4,2.9,4.2,3.9
		c1.7,1,3.8,1.5,6.3,1.5C314,565.1,316.1,564.6,317.8,563.6z"/>
	<path style="fill:#E72035;" d="M348.7,536.5c0.2-3.6,1.1-6.6,2.7-9c1.6-2.4,3.6-4.3,6-5.7c2.4-1.4,5.2-2.5,8.3-3.1s6.1-0.9,9.2-0.9
		c2.8,0,5.6,0.2,8.5,0.6c2.9,0.4,5.5,1.2,7.9,2.3c2.4,1.2,4.3,2.8,5.8,4.8s2.3,4.8,2.3,8.1v29c0,2.5,0.1,4.9,0.4,7.2s0.8,4,1.5,5.2
		h-15.5c-0.3-0.9-0.5-1.7-0.7-2.6c-0.2-0.9-0.3-1.8-0.4-2.8c-2.4,2.5-5.3,4.3-8.6,5.3c-3.3,1-6.7,1.5-10.1,1.5c-2.7,0-5.1-0.3-7.4-1
		c-2.3-0.6-4.3-1.7-6-3c-1.7-1.4-3.1-3.1-4-5.2c-1-2.1-1.5-4.6-1.5-7.4c0-3.2,0.6-5.8,1.7-7.8c1.1-2.1,2.6-3.7,4.3-4.9
		c1.8-1.2,3.8-2.1,6-2.8c2.3-0.6,4.6-1.1,6.9-1.5c2.3-0.4,4.6-0.6,6.8-0.9c2.2-0.2,4.2-0.5,5.9-1c1.7-0.5,3.1-1.1,4.1-1.9
		s1.5-2,1.4-3.6c0-1.7-0.3-3-0.8-3.9c-0.5-1-1.3-1.7-2.2-2.3c-0.9-0.5-1.9-0.9-3.1-1.1c-1.2-0.2-2.5-0.3-3.8-0.3
		c-3,0-5.4,0.6-7.1,1.9c-1.7,1.3-2.7,3.5-3,6.5h-15.5V536.5z M384.1,547.8c-0.6,0.6-1.5,1-2.4,1.3c-1,0.3-2,0.6-3.1,0.8
		c-1.1,0.2-2.3,0.4-3.5,0.5c-1.2,0.1-2.4,0.3-3.7,0.5c-1.2,0.2-2.3,0.5-3.4,0.9c-1.1,0.4-2.1,0.8-2.9,1.5c-0.8,0.6-1.5,1.4-2,2.3
		c-0.5,0.9-0.8,2.1-0.8,3.6c0,1.4,0.3,2.5,0.8,3.5c0.5,0.9,1.2,1.7,2.1,2.2c0.9,0.5,1.9,0.9,3,1.1c1.2,0.2,2.3,0.3,3.6,0.3
		c3,0,5.4-0.5,7-1.5c1.7-1,2.9-2.2,3.7-3.6c0.8-1.4,1.3-2.8,1.5-4.3c0.2-1.4,0.3-2.6,0.3-3.5v-5.6H384.1z"/>
	<path style="fill:#E72035;" d="M425.8,519.3v7.8h0.3c1.9-3.2,4.5-5.6,7.6-7.1s6.3-2.2,9.5-2.2c4.1,0,7.5,0.6,10.1,1.7
		c2.6,1.1,4.7,2.7,6.2,4.6c1.5,2,2.6,4.4,3.2,7.2c0.6,2.8,0.9,6,0.9,9.4V575h-15.3v-31.5c0-4.6-0.7-8-2.2-10.3
		c-1.4-2.3-4-3.4-7.7-3.4c-4.2,0-7.2,1.2-9.1,3.7c-1.9,2.5-2.8,6.6-2.8,12.3v29.3h-15.3v-55.8H425.8z"/>
</g>
</svg>
