<?xml version="1.0" encoding="utf-8"?>
<!-- Generator: Adobe Illustrator 18.1.1, SVG Export Plug-In . SVG Version: 6.00 Build 0)  -->
<!DOCTYPE svg PUBLIC "-//W3C//DTD SVG 1.1//EN" "http://www.w3.org/Graphics/SVG/1.1/DTD/svg11.dtd">
<svg version="1.1" id="レイヤー_1" xmlns="http://www.w3.org/2000/svg" xmlns:xlink="http://www.w3.org/1999/xlink" x="0px"
	 y="0px" viewBox="0 247.9 841.9 100.3" style="enable-background:new 0 247.9 841.9 100.3;" xml:space="preserve">
<g>
	<g>
		<g style="opacity:0.51;">
			<circle style="fill:#E72035;" cx="40.6" cy="294.3" r="1.1"/>
			<circle style="fill:#E72035;" cx="40.1" cy="297.9" r="1.1"/>
			<circle style="fill:#E72035;" cx="40.6" cy="301.5" r="1.1"/>
			<circle style="fill:#E72035;" cx="42.5" cy="304.7" r="1.1"/>
			<circle style="fill:#E72035;" cx="45.2" cy="306.9" r="1.1"/>
			<circle style="fill:#E72035;" cx="48.7" cy="308.1" r="1.1"/>
			<circle style="fill:#E72035;" cx="52.2" cy="308.1" r="1.1"/>
			<circle style="fill:#E72035;" cx="55.7" cy="306.9" r="1.1"/>
			<circle style="fill:#E72035;" cx="58.4" cy="304.7" r="1.1"/>
		</g>
		<g style="opacity:0.58;">
			<circle style="fill:#E72035;" cx="39.6" cy="291.6" r="1.4"/>
			<circle style="fill:#E72035;" cx="38.2" cy="295.8" r="1.4"/>
			<circle style="fill:#E72035;" cx="38.2" cy="300.1" r="1.4"/>
			<circle style="fill:#E72035;" cx="39.6" cy="304.1" r="1.4"/>
			<circle style="fill:#E72035;" cx="42.4" cy="307.5" r="1.4"/>
			<circle style="fill:#E72035;" cx="46.2" cy="309.7" r="1.4"/>
			<circle style="fill:#E72035;" cx="50.4" cy="310.4" r="1.4"/>
			<circle style="fill:#E72035;" cx="54.7" cy="309.7" r="1.4"/>
			<circle style="fill:#E72035;" cx="58.4" cy="307.5" r="1.4"/>
		</g>
		<g style="opacity:0.65;">
			<circle style="fill:#E72035;" cx="38.9" cy="288.3" r="1.7"/>
			<circle style="fill:#E72035;" cx="36.4" cy="292.8" r="1.7"/>
			<circle style="fill:#E72035;" cx="35.5" cy="297.9" r="1.7"/>
			<circle style="fill:#E72035;" cx="36.4" cy="303.1" r="1.7"/>
			<circle style="fill:#E72035;" cx="38.9" cy="307.5" r="1.7"/>
			<circle style="fill:#E72035;" cx="42.9" cy="310.8" r="1.7"/>
			<circle style="fill:#E72035;" cx="47.8" cy="312.7" r="1.7"/>
			<circle style="fill:#E72035;" cx="53.1" cy="312.7" r="1.7"/>
			<circle style="fill:#E72035;" cx="58" cy="310.8" r="1.7"/>
		</g>
		<g style="opacity:0.72;">
			<circle style="fill:#E72035;" cx="38.9" cy="284.2" r="2"/>
			<circle style="fill:#E72035;" cx="34.9" cy="288.9" r="2"/>
			<circle style="fill:#E72035;" cx="32.8" cy="294.8" r="2"/>
			<circle style="fill:#E72035;" cx="32.8" cy="301.1" r="2"/>
			<circle style="fill:#E72035;" cx="34.9" cy="306.9" r="2"/>
			<circle style="fill:#E72035;" cx="38.9" cy="311.7" r="2"/>
			<circle style="fill:#E72035;" cx="44.2" cy="314.8" r="2"/>
			<circle style="fill:#E72035;" cx="50.4" cy="315.8" r="2"/>
			<circle style="fill:#E72035;" cx="56.5" cy="314.8" r="2"/>
		</g>
		<g style="opacity:0.79;">
			<circle style="fill:#E72035;" cx="39.6" cy="279.3" r="2.4"/>
			<circle style="fill:#E72035;" cx="33.9" cy="284" r="2.4"/>
			<circle style="fill:#E72035;" cx="30.2" cy="290.5" r="2.4"/>
			<circle style="fill:#E72035;" cx="28.9" cy="297.9" r="2.4"/>
			<circle style="fill:#E72035;" cx="30.2" cy="305.2" r="2.4"/>
			<circle style="fill:#E72035;" cx="33.9" cy="311.8" r="2.4"/>
			<circle style="fill:#E72035;" cx="39.6" cy="316.5" r="2.4"/>
			<circle style="fill:#E72035;" cx="46.7" cy="319.1" r="2.4"/>
			<circle style="fill:#E72035;" cx="54.1" cy="319.1" r="2.4"/>
		</g>
		<g style="opacity:0.86;">
			<circle style="fill:#E72035;" cx="41.7" cy="273.6" r="2.9"/>
			<circle style="fill:#E72035;" cx="33.8" cy="278.2" r="2.9"/>
			<circle style="fill:#E72035;" cx="28.1" cy="285" r="2.9"/>
			<circle style="fill:#E72035;" cx="24.9" cy="293.5" r="2.9"/>
			<circle style="fill:#E72035;" cx="24.9" cy="302.4" r="2.9"/>
			<circle style="fill:#E72035;" cx="28.1" cy="310.8" r="2.9"/>
			<circle style="fill:#E72035;" cx="33.8" cy="317.7" r="2.9"/>
			<circle style="fill:#E72035;" cx="41.7" cy="322.3" r="2.9"/>
			<circle style="fill:#E72035;" cx="50.4" cy="323.8" r="2.9"/>
		</g>
		<g style="opacity:0.93;">
			<circle style="fill:#E72035;" cx="45.1" cy="267.3" r="3.4"/>
			<circle style="fill:#E72035;" cx="34.9" cy="271" r="3.4"/>
			<circle style="fill:#E72035;" cx="26.6" cy="278" r="3.4"/>
			<circle style="fill:#E72035;" cx="21.3" cy="287.3" r="3.4"/>
			<circle style="fill:#E72035;" cx="19.5" cy="297.9" r="3.4"/>
			<circle style="fill:#E72035;" cx="21.3" cy="308.5" r="3.4"/>
			<circle style="fill:#E72035;" cx="26.6" cy="317.8" r="3.4"/>
			<circle style="fill:#E72035;" cx="34.9" cy="324.8" r="3.4"/>
			<circle style="fill:#E72035;" cx="45.1" cy="328.4" r="3.4"/>
		</g>
		<g>
			<circle style="fill:#E72035;" cx="37.6" cy="262.9" r="4.2"/>
			<circle style="fill:#E72035;" cx="26.5" cy="269.4" r="4.2"/>
			<circle style="fill:#E72035;" cx="18.2" cy="279.3" r="4.2"/>
			<circle style="fill:#E72035;" cx="13.7" cy="291.5" r="4.2"/>
			<circle style="fill:#E72035;" cx="13.7" cy="304.4" r="4.2"/>
			<circle style="fill:#E72035;" cx="18.2" cy="316.5" r="4.2"/>
			<circle style="fill:#E72035;" cx="26.5" cy="326.4" r="4.2"/>
			<circle style="fill:#E72035;" cx="37.6" cy="332.8" r="4.2"/>
			<circle style="fill:#E72035;" cx="50.4" cy="260.7" r="4.2"/>
		</g>
		<g>
			<circle style="fill:#E72035;" cx="42.7" cy="254" r="5"/>
			<circle style="fill:#E72035;" cx="28.1" cy="259.3" r="5"/>
			<circle style="fill:#E72035;" cx="16.2" cy="269.2" r="5"/>
			<circle style="fill:#E72035;" cx="8.4" cy="282.6" r="5"/>
			<circle style="fill:#E72035;" cx="5.7" cy="297.9" r="5"/>
			<circle style="fill:#E72035;" cx="8.4" cy="313.2" r="5"/>
			<circle style="fill:#E72035;" cx="16.2" cy="326.7" r="5"/>
			<circle style="fill:#E72035;" cx="28.1" cy="336.6" r="5"/>
			<circle style="fill:#E72035;" cx="58.3" cy="254" r="5"/>
		</g>
	</g>
	<g style="opacity:0.6;">
		<g style="opacity:0.51;">
			<circle style="fill:#E72035;" cx="48.7" cy="287.6" r="1.1"/>
			<circle style="fill:#E72035;" cx="55.7" cy="288.9" r="1.1"/>
			<circle style="fill:#E72035;" cx="52.2" cy="287.6" r="1.1"/>
		</g>
		<g style="opacity:0.58;">
			<circle style="fill:#E72035;" cx="58.4" cy="288.3" r="1.4"/>
			<circle style="fill:#E72035;" cx="54.7" cy="286.2" r="1.4"/>
			<circle style="fill:#E72035;" cx="50.4" cy="285.5" r="1.4"/>
		</g>
		<g style="opacity:0.65;">
			<circle style="fill:#E72035;" cx="61.8" cy="288.3" r="1.7"/>
			<circle style="fill:#E72035;" cx="58" cy="284.9" r="1.7"/>
			<circle style="fill:#E72035;" cx="53.1" cy="283.2" r="1.7"/>
		</g>
		<g style="opacity:0.72;">
			<circle style="fill:#E72035;" cx="66" cy="288.9" r="2"/>
			<circle style="fill:#E72035;" cx="62" cy="284.2" r="2"/>
			<circle style="fill:#E72035;" cx="56.5" cy="281" r="2"/>
		</g>
		<g style="opacity:0.79;">
			<circle style="fill:#E72035;" cx="70.7" cy="290.5" r="2.4"/>
			<circle style="fill:#E72035;" cx="67" cy="284" r="2.4"/>
			<circle style="fill:#E72035;" cx="61.3" cy="279.3" r="2.4"/>
		</g>
		<g style="opacity:0.86;">
			<circle style="fill:#E72035;" cx="75.9" cy="293.5" r="2.9"/>
			<circle style="fill:#E72035;" cx="72.9" cy="285" r="2.9"/>
			<circle style="fill:#E72035;" cx="67" cy="278.2" r="2.9"/>
		</g>
		<g style="opacity:0.93;">
			<circle style="fill:#E72035;" cx="81.4" cy="297.9" r="3.4"/>
			<circle style="fill:#E72035;" cx="79.6" cy="287.3" r="3.4"/>
			<circle style="fill:#E72035;" cx="74.1" cy="278" r="3.4"/>
		</g>
		<g>
			<circle style="fill:#E72035;" cx="87.2" cy="304.4" r="4.2"/>
			<circle style="fill:#E72035;" cx="87.2" cy="291.5" r="4.2"/>
			<circle style="fill:#E72035;" cx="82.7" cy="279.3" r="4.2"/>
		</g>
		<g>
			<circle style="fill:#E72035;" cx="92.5" cy="313.2" r="5"/>
			<circle style="fill:#E72035;" cx="95" cy="297.9" r="5"/>
			<circle style="fill:#E72035;" cx="92.5" cy="282.6" r="5"/>
		</g>
	</g>
	<g style="opacity:0.4;">
		<g style="opacity:0.51;">
			<circle style="fill:#E72035;" cx="45.2" cy="288.9" r="1.1"/>
			<circle style="fill:#E72035;" cx="42.5" cy="291.2" r="1.1"/>
		</g>
		<g style="opacity:0.58;">
			<circle style="fill:#E72035;" cx="46.2" cy="286.2" r="1.4"/>
			<circle style="fill:#E72035;" cx="42.4" cy="288.3" r="1.4"/>
		</g>
		<g style="opacity:0.65;">
			<circle style="fill:#E72035;" cx="47.8" cy="283.2" r="1.7"/>
			<circle style="fill:#E72035;" cx="42.9" cy="284.9" r="1.7"/>
		</g>
		<g style="opacity:0.72;">
			<circle style="fill:#E72035;" cx="44.2" cy="281" r="2"/>
			<circle style="fill:#E72035;" cx="50.4" cy="279.9" r="2"/>
		</g>
		<g style="opacity:0.79;">
			<circle style="fill:#E72035;" cx="46.7" cy="276.7" r="2.4"/>
			<circle style="fill:#E72035;" cx="54.1" cy="276.7" r="2.4"/>
		</g>
		<g style="opacity:0.86;">
			<circle style="fill:#E72035;" cx="59.3" cy="273.6" r="2.9"/>
			<circle style="fill:#E72035;" cx="50.4" cy="272" r="2.9"/>
		</g>
		<g style="opacity:0.93;">
			<circle style="fill:#E72035;" cx="66" cy="271" r="3.4"/>
			<circle style="fill:#E72035;" cx="55.8" cy="267.3" r="3.4"/>
		</g>
		<g>
			<circle style="fill:#E72035;" cx="74.4" cy="269.4" r="4.2"/>
			<circle style="fill:#E72035;" cx="63.1" cy="262.9" r="4.2"/>
		</g>
		<g>
			<circle style="fill:#E72035;" cx="84.6" cy="269.2" r="5"/>
			<circle style="fill:#E72035;" cx="72.7" cy="259.3" r="5"/>
		</g>
	</g>
	<g style="opacity:0.8;">
		<g style="opacity:0.51;">
			<circle style="fill:#E72035;" cx="60.3" cy="301.5" r="1.1"/>
			<circle style="fill:#E72035;" cx="60.8" cy="297.9" r="1.1"/>
			<circle style="fill:#E72035;" cx="60.3" cy="294.3" r="1.1"/>
			<circle style="fill:#E72035;" cx="58.4" cy="291.2" r="1.1"/>
		</g>
		<g style="opacity:0.58;">
			<circle style="fill:#E72035;" cx="61.3" cy="304.1" r="1.4"/>
			<circle style="fill:#E72035;" cx="62.7" cy="300.1" r="1.4"/>
			<circle style="fill:#E72035;" cx="62.7" cy="295.8" r="1.4"/>
			<circle style="fill:#E72035;" cx="61.3" cy="291.6" r="1.4"/>
		</g>
		<g style="opacity:0.65;">
			<circle style="fill:#E72035;" cx="61.8" cy="307.5" r="1.7"/>
			<circle style="fill:#E72035;" cx="64.6" cy="303.1" r="1.7"/>
			<circle style="fill:#E72035;" cx="65.4" cy="297.9" r="1.7"/>
			<circle style="fill:#E72035;" cx="64.6" cy="292.8" r="1.7"/>
		</g>
		<g style="opacity:0.72;">
			<circle style="fill:#E72035;" cx="62" cy="311.7" r="2"/>
			<circle style="fill:#E72035;" cx="66" cy="306.9" r="2"/>
			<circle style="fill:#E72035;" cx="68.1" cy="301.1" r="2"/>
			<circle style="fill:#E72035;" cx="68.1" cy="294.8" r="2"/>
		</g>
		<g style="opacity:0.79;">
			<circle style="fill:#E72035;" cx="61.3" cy="316.5" r="2.4"/>
			<circle style="fill:#E72035;" cx="67" cy="311.8" r="2.4"/>
			<circle style="fill:#E72035;" cx="70.7" cy="305.2" r="2.4"/>
			<circle style="fill:#E72035;" cx="72" cy="297.9" r="2.4"/>
		</g>
		<g style="opacity:0.86;">
			<circle style="fill:#E72035;" cx="59.3" cy="322.3" r="2.9"/>
			<circle style="fill:#E72035;" cx="67" cy="317.7" r="2.9"/>
			<circle style="fill:#E72035;" cx="72.9" cy="310.8" r="2.9"/>
			<circle style="fill:#E72035;" cx="75.9" cy="302.4" r="2.9"/>
		</g>
		<g style="opacity:0.93;">
			<circle style="fill:#E72035;" cx="55.8" cy="328.4" r="3.4"/>
			<circle style="fill:#E72035;" cx="66" cy="324.8" r="3.4"/>
			<circle style="fill:#E72035;" cx="74.1" cy="317.8" r="3.4"/>
			<circle style="fill:#E72035;" cx="79.6" cy="308.5" r="3.4"/>
		</g>
		<g>
			<circle style="fill:#E72035;" cx="50.4" cy="335.1" r="4.2"/>
			<circle style="fill:#E72035;" cx="63.1" cy="332.8" r="4.2"/>
			<circle style="fill:#E72035;" cx="74.4" cy="326.4" r="4.2"/>
			<circle style="fill:#E72035;" cx="82.7" cy="316.5" r="4.2"/>
		</g>
		<g>
			<circle style="fill:#E72035;" cx="42.7" cy="341.9" r="5"/>
			<circle style="fill:#E72035;" cx="58.3" cy="341.9" r="5"/>
			<circle style="fill:#E72035;" cx="72.7" cy="336.6" r="5"/>
			<circle style="fill:#E72035;" cx="84.6" cy="326.7" r="5"/>
		</g>
	</g>
</g>
<g>
	<path style="fill:#191A1A;" d="M165,318.1l-6.9-27.6H158l-6.7,27.6h-9l-10.6-40.5h8.9l6.4,27.6h0.1l7-27.6h8.3l6.9,27.9h0.1
		l6.6-27.9h8.7l-10.9,40.5H165z"/>
	<path style="fill:#191A1A;" d="M194.9,311.1c1.1,1.1,3,1.7,5.2,1.7c1.6,0,3-0.4,4.2-1.3c1.1-0.9,1.9-1.7,2.1-2.6h7.2
		c-1.1,3.6-2.9,6-5.2,7.6s-5.2,2.3-8.4,2.3c-2.3,0-4.4-0.4-6.3-1.1c-1.9-0.7-3.4-1.7-4.7-3.1c-1.3-1.4-2.3-3-3-4.9
		c-0.7-1.9-1-4-1-6.3c0-2.1,0.4-4.3,1.1-6.2s1.7-3.6,3-4.9c1.3-1.4,2.9-2.4,4.7-3.3c1.9-0.9,3.9-1.1,6.2-1.1c2.4,0,4.7,0.4,6.6,1.4
		c1.9,1,3.4,2.3,4.6,3.9c1.1,1.6,2,3.4,2.6,5.6c0.6,2.1,0.7,4.3,0.6,6.6h-21.2C193.1,308.1,193.8,309.9,194.9,311.1z M204.1,295.6
		c-1-1-2.4-1.6-4.4-1.6c-1.3,0-2.3,0.3-3.1,0.7c-0.9,0.4-1.6,1-2,1.6c-0.6,0.6-0.9,1.3-1.1,2c-0.1,0.7-0.3,1.4-0.4,1.9h13.2
		C205.8,298.2,205.1,296.8,204.1,295.6z"/>
	<path style="fill:#191A1A;" d="M227.3,277.6v14.7h0.1c1-1.6,2.3-2.6,4-3.3c1.7-0.7,3.4-1,5.3-1c1.4,0,2.9,0.3,4.4,0.9
		c1.4,0.6,2.7,1.6,3.9,2.7c1.1,1.3,2.1,2.9,2.9,4.7c0.7,2,1.1,4.3,1.1,7c0,2.7-0.4,5-1.1,7c-0.7,2-1.7,3.6-2.9,4.7
		c-1.1,1.3-2.4,2.1-3.9,2.7c-1.4,0.6-2.9,0.9-4.4,0.9c-2.1,0-4.2-0.3-5.7-1c-1.6-0.7-3-1.9-3.9-3.4H227v3.7h-7.6v-40.4H227.3z
		 M240.3,299.9c-0.3-1.1-0.7-2.1-1.3-3c-0.6-0.9-1.3-1.6-2.1-2c-0.9-0.6-1.9-0.7-3.1-0.7c-1.1,0-2.1,0.3-3,0.7
		c-0.9,0.6-1.6,1.1-2.1,2c-0.6,0.9-1,1.9-1.3,3c-0.3,1.1-0.4,2.3-0.4,3.6c0,1.1,0.1,2.4,0.4,3.6c0.3,1.1,0.7,2.1,1.3,3
		c0.6,0.9,1.3,1.6,2.1,2c0.9,0.6,1.9,0.7,3,0.7c1.1,0,2.3-0.3,3.1-0.7s1.6-1.1,2.1-2c0.6-0.9,1-1.9,1.3-3c0.3-1.1,0.4-2.3,0.4-3.6
		C240.7,302.2,240.6,301.1,240.3,299.9z"/>
	<path style="fill:#191A1A;" d="M276.5,277.6c1.9,0,3.4,0.3,4.9,0.9c1.4,0.6,2.7,1.4,3.7,2.4c1,1,1.9,2.1,2.4,3.6
		c0.6,1.3,0.9,2.7,0.9,4.3c0,2.4-0.6,4.4-1.4,6.2c-1,1.7-2.6,3-4.9,4v0.1c1.1,0.3,2,0.7,2.7,1.4c0.7,0.6,1.3,1.4,1.7,2.1
		c0.4,0.7,0.7,1.7,1,2.9c0.1,1,0.3,2,0.4,3c0,0.6,0.1,1.4,0.1,2.3c0,0.9,0.1,1.7,0.1,2.7c0.1,0.9,0.3,1.7,0.4,2.6
		c0.1,0.9,0.6,1.4,1,2h-8.9c-0.4-1.3-0.9-2.9-0.9-4.6c-0.1-1.7-0.3-3.4-0.6-5.2c-0.3-2.1-1-3.7-1.9-4.6c-1-1-2.6-1.4-4.9-1.4h-8.9
		v15.9h-9v-40.6H276.5z M273.4,295.9c2,0,3.6-0.4,4.6-1.4c1-0.9,1.6-2.4,1.6-4.4s-0.6-3.4-1.6-4.3c-1-0.9-2.6-1.3-4.6-1.3h-9.7v11.5
		H273.4z"/>
	<path style="fill:#191A1A;" d="M292.3,285.2v-7.4h33.2v7.4h-12.2v33.1h-8.9v-33.1H292.3z"/>
	<path style="fill:#191A1A;" d="M355,288.5c-0.6-0.9-1.1-1.6-2-2.3c-0.9-0.6-1.7-1.1-2.7-1.4c-1-0.4-2-0.6-3.1-0.6
		c-2,0-3.7,0.4-5.2,1.1c-1.4,0.7-2.6,1.9-3.4,3.1c-0.9,1.3-1.4,2.7-1.9,4.4s-0.6,3.4-0.6,5.2s0.1,3.3,0.6,5c0.4,1.6,1,3,1.9,4.3
		c0.9,1.3,2,2.3,3.4,3.1c1.4,0.7,3.1,1.1,5.2,1.1c2.7,0,4.9-0.9,6.4-2.4c1.6-1.6,2.4-3.9,2.9-6.6h8.6c-0.3,2.6-0.9,4.9-1.7,6.9
		c-1,2-2.1,3.7-3.7,5.2c-1.6,1.4-3.4,2.6-5.4,3.3c-2.1,0.7-4.4,1.1-6.9,1.1c-3.1,0-5.9-0.6-8.3-1.6c-2.4-1.1-4.6-2.6-6.3-4.4
		c-1.7-1.9-3-4.2-3.9-6.7c-0.9-2.6-1.4-5.3-1.4-8.3c0-3,0.4-5.9,1.4-8.4c0.9-2.6,2.1-4.9,3.9-6.7c1.7-1.9,3.7-3.4,6.3-4.6
		c2.4-1.1,5.3-1.6,8.3-1.6c2.3,0,4.3,0.3,6.3,1s3.7,1.6,5.3,2.9c1.6,1.3,2.9,2.7,3.9,4.6c1,1.9,1.7,3.9,1.9,6.3H356
		C355.8,290.2,355.5,289.3,355,288.5z"/>
	<path style="fill:#A6ACAF;" d="M415.5,285.8c-0.7-1.3-1.7-2.3-2.9-3.1c-1.1-0.9-2.3-1.4-3.7-1.9c-1.3-0.4-2.7-0.7-4.3-0.7
		c-2.7,0-5,0.6-6.9,1.6c-1.9,1-3.6,2.4-4.7,4c-1.3,1.7-2.1,3.6-2.7,5.7c-0.6,2.1-0.9,4.3-0.9,6.6c0,2.1,0.3,4.3,0.9,6.4
		s1.4,4,2.7,5.7c1.3,1.7,2.9,3,4.7,4c1.9,1,4.3,1.6,6.9,1.6c1.9,0,3.6-0.3,5.2-1c1.6-0.7,2.9-1.6,3.9-2.7c1.1-1.1,2-2.6,2.7-4.2
		c0.7-1.6,1.1-3.3,1.3-5h3.9c-0.3,2.4-0.9,4.7-1.7,6.7c-0.9,2-2.1,3.7-3.6,5.2c-1.4,1.4-3.1,2.4-5,3.3c-2,0.7-4.2,1.1-6.4,1.1
		c-3.1,0-6-0.6-8.3-1.7c-2.4-1.1-4.4-2.7-6-4.6s-2.7-4.2-3.6-6.7c-0.9-2.6-1.1-5.2-1.1-8s0.4-5.4,1.1-8c0.7-2.6,2-4.7,3.6-6.7
		s3.6-3.4,6-4.6c2.4-1.1,5.2-1.7,8.3-1.7c1.9,0,3.9,0.3,5.6,0.9c1.9,0.6,3.4,1.4,5,2.6c1.4,1.1,2.7,2.4,3.7,4.2
		c1,1.6,1.6,3.4,1.9,5.6h-3.9C416.8,288.3,416.2,286.9,415.5,285.8z"/>
	<path style="fill:#A6ACAF;" d="M445,289.2c1.7,0.9,3.1,2,4.3,3.3c1.1,1.4,2,3,2.7,4.9c0.6,1.9,0.9,3.9,0.9,6c0,2.1-0.3,4.2-0.9,6
		s-1.4,3.6-2.7,4.9c-1.1,1.4-2.6,2.6-4.3,3.3c-1.7,0.9-3.7,1.3-5.9,1.3c-2.3,0-4.2-0.4-5.9-1.3c-1.7-0.9-3.1-1.9-4.3-3.3
		c-1.1-1.4-2-3-2.7-4.9c-0.6-1.9-0.9-3.9-0.9-6c0-2.1,0.3-4.2,0.9-6s1.4-3.4,2.7-4.9c1.1-1.4,2.6-2.6,4.3-3.3
		c1.7-0.9,3.7-1.3,5.9-1.3C441.3,288.1,443.3,288.5,445,289.2z M434.5,292.1c-1.3,0.7-2.3,1.7-3.1,2.9c-0.9,1.1-1.4,2.6-1.9,4
		c-0.4,1.4-0.7,3-0.7,4.6c0,1.6,0.3,3,0.7,4.6c0.4,1.4,1.1,2.9,1.9,4c0.7,1.1,1.9,2.1,3.1,2.9c1.3,0.7,2.7,1.1,4.4,1.1
		c1.7,0,3.1-0.4,4.4-1.1c1.3-0.7,2.3-1.7,3.1-2.9c0.9-1.1,1.4-2.6,1.9-4c0.4-1.4,0.7-3,0.7-4.6c0-1.6-0.3-3-0.7-4.6
		c-0.4-1.4-1.1-2.9-1.9-4c-0.9-1.1-1.9-2.1-3.1-2.9c-1.3-0.7-2.7-1.1-4.4-1.1C437.3,290.9,435.8,291.3,434.5,292.1z"/>
	<path style="fill:#A6ACAF;" d="M461.6,288.9v5h0.1c0.7-1.7,1.9-3.1,3.6-4.3c1.7-1.1,3.6-1.6,5.7-1.6c2,0,3.7,0.3,5.2,0.9
		c1.4,0.6,2.4,1.3,3.3,2.3c0.9,1,1.4,2.1,1.7,3.6c0.3,1.4,0.6,3,0.6,4.7v18.9h-3.6v-18.5c0-1.3-0.1-2.4-0.3-3.4
		c-0.3-1.1-0.6-2-1.1-2.9c-0.6-0.9-1.3-1.4-2.3-1.9c-1-0.4-2.1-0.7-3.6-0.7c-1.4,0-2.7,0.3-3.9,0.7c-1.1,0.6-2,1.1-2.9,2.1
		c-0.7,0.9-1.4,2-1.9,3.1c-0.4,1.3-0.7,2.6-0.7,4v17H458v-29.2H461.6z"/>
	<path style="fill:#A6ACAF;" d="M493.2,291.9v26.2h-3.6v-26.2h-5v-3h5v-2.7c0-1.3,0.1-2.4,0.3-3.4c0.1-1,0.6-2,1.1-2.7
		c0.6-0.7,1.3-1.3,2.1-1.7c0.9-0.4,2.1-0.6,3.6-0.6c0.6,0,1,0,1.4,0s1,0.1,1.6,0.1v3c-0.4-0.1-1-0.1-1.4-0.1c-0.4,0-0.9-0.1-1.3-0.1
		c-1,0-1.7,0.1-2.3,0.4s-0.9,0.7-1.1,1.3c-0.3,0.6-0.4,1.1-0.4,1.7c0,0.6,0,1.4,0,2.1v2.6h5.7v3h-5.7V291.9z"/>
	<path style="fill:#A6ACAF;" d="M504.2,308.5c0.4,1.4,1,2.6,1.7,3.7c0.9,1.1,1.9,2,3,2.7c1.1,0.7,2.7,1.1,4.4,1.1
		c2.6,0,4.6-0.7,6.2-2c1.4-1.4,2.4-3.1,3-5.4h3.6c-0.7,3.3-2.1,5.9-4.2,7.7c-2,1.9-4.9,2.7-8.6,2.7c-2.3,0-4.3-0.4-6-1.3
		c-1.7-0.9-3-1.9-4.2-3.3c-1-1.4-1.9-3-2.3-4.9s-0.7-3.9-0.7-5.9c0-1.9,0.3-3.9,0.7-5.7c0.6-1.9,1.3-3.4,2.3-5
		c1-1.4,2.4-2.6,4.2-3.6c1.7-1,3.7-1.3,6-1.3s4.3,0.4,6,1.4c1.7,1,3,2.1,4,3.7s1.7,3.3,2.3,5.3c0.4,2,0.6,4,0.6,6h-22.5
		C503.7,305.8,503.8,307.1,504.2,308.5z M521.9,297.5c-0.4-1.3-1-2.3-1.9-3.3c-0.9-1-1.7-1.7-2.9-2.3s-2.4-0.9-3.9-0.9
		c-1.4,0-2.7,0.3-3.9,0.9c-1.1,0.6-2.1,1.4-2.9,2.3c-0.9,1-1.4,2.1-1.9,3.3c-0.4,1.3-0.7,2.6-1,3.9h18.9
		C522.6,300.1,522.3,298.8,521.9,297.5z"/>
	<path style="fill:#A6ACAF;" d="M534.3,288.9v6.9h0.1c0.9-2.4,2.3-4.2,4.3-5.4c2-1.3,4.2-1.9,6.9-1.7v3.6c-1.6-0.1-3.1,0.1-4.4,0.7
		c-1.3,0.6-2.4,1.3-3.4,2.1c-1,1-1.7,2-2.3,3.4c-0.6,1.3-0.9,2.7-0.9,4.3v15.6H531v-29.5H534.3z"/>
	<path style="fill:#A6ACAF;" d="M550.8,308.5c0.4,1.4,1,2.6,1.7,3.7c0.9,1.1,1.9,2,3,2.7c1.1,0.7,2.7,1.1,4.4,1.1
		c2.6,0,4.6-0.7,6.2-2c1.4-1.4,2.4-3.1,3-5.4h3.6c-0.7,3.3-2.1,5.9-4.2,7.7c-2,1.9-4.9,2.7-8.6,2.7c-2.3,0-4.3-0.4-6-1.3
		c-1.7-0.9-3-1.9-4.2-3.3c-1-1.4-1.9-3-2.3-4.9c-0.4-1.9-0.7-3.9-0.7-5.9c0-1.9,0.3-3.9,0.7-5.7c0.6-1.9,1.3-3.4,2.3-5
		c1-1.4,2.4-2.6,4.2-3.6c1.7-1,3.7-1.3,6-1.3s4.3,0.4,6,1.4c1.7,1,3,2.1,4,3.7s1.7,3.3,2.3,5.3c0.4,2,0.6,4,0.6,6h-22.5
		C550.2,305.8,550.3,307.1,550.8,308.5z M568.4,297.5c-0.4-1.3-1-2.3-1.9-3.3c-0.9-1-1.7-1.7-2.9-2.3s-2.4-0.9-3.9-0.9
		c-1.4,0-2.7,0.3-3.9,0.9c-1.1,0.6-2.1,1.4-2.9,2.3c-0.9,1-1.4,2.1-1.9,3.3c-0.4,1.3-0.7,2.6-1,3.9h18.9
		C569.1,300.1,568.8,298.8,568.4,297.5z"/>
	<path style="fill:#A6ACAF;" d="M581.1,288.9v5h0.1c0.7-1.7,1.9-3.1,3.6-4.3c1.7-1.1,3.6-1.6,5.7-1.6c2,0,3.7,0.3,5.2,0.9
		c1.4,0.6,2.4,1.3,3.3,2.3c0.9,1,1.4,2.1,1.7,3.6c0.3,1.4,0.6,3,0.6,4.7v18.9h-3.6v-18.5c0-1.3-0.1-2.4-0.3-3.4
		c-0.3-1.1-0.6-2-1.1-2.9c-0.6-0.9-1.3-1.4-2.3-1.9c-1-0.4-2.1-0.7-3.6-0.7c-1.4,0-2.7,0.3-3.9,0.7c-1.1,0.6-2,1.1-2.9,2.1
		c-0.7,0.9-1.4,2-1.9,3.1c-0.4,1.3-0.7,2.6-0.7,4v17h-3.6v-29.2H581.1z"/>
	<path style="fill:#A6ACAF;" d="M625.8,292.9c-1.3-1.3-3.1-1.9-5.6-1.9c-1.7,0-3.1,0.4-4.4,1.1c-1.3,0.7-2.3,1.7-3.1,2.9
		c-0.9,1.1-1.4,2.6-1.9,4s-0.7,3-0.7,4.6c0,1.6,0.3,3,0.7,4.6c0.4,1.4,1.1,2.9,1.9,4c0.9,1.1,1.9,2.1,3.1,2.9
		c1.3,0.7,2.7,1.1,4.4,1.1c1.1,0,2.1-0.1,3.1-0.6c1-0.4,1.9-1,2.6-1.7c0.7-0.7,1.4-1.6,1.9-2.6c0.4-1,0.9-2.1,0.9-3.3h3.6
		c-0.4,3.6-1.9,6.3-3.9,8.3s-4.9,3-8.2,3c-2.3,0-4.2-0.4-5.9-1.3c-1.7-0.9-3.1-1.9-4.3-3.3c-1.1-1.4-2-3-2.7-4.9
		c-0.6-1.9-0.9-3.9-0.9-6c0-2.1,0.3-4.2,0.9-6s1.4-3.4,2.7-4.9c1.1-1.4,2.6-2.6,4.3-3.3c1.7-0.9,3.7-1.3,5.9-1.3
		c3.1,0,5.7,0.9,8,2.4c2.1,1.7,3.4,4.2,3.9,7.6h-3.6C627.9,295.9,627.1,294.2,625.8,292.9z"/>
	<path style="fill:#A6ACAF;" d="M639.8,308.5c0.4,1.4,1,2.6,1.7,3.7c0.9,1.1,1.9,2,3,2.7c1.1,0.7,2.7,1.1,4.4,1.1
		c2.6,0,4.6-0.7,6.2-2c1.4-1.4,2.4-3.1,3-5.4h3.6c-0.7,3.3-2.1,5.9-4.2,7.7c-2,1.9-4.9,2.7-8.6,2.7c-2.3,0-4.3-0.4-6-1.3
		c-1.7-0.9-3-1.9-4.2-3.3c-1-1.4-1.9-3-2.3-4.9c-0.4-1.9-0.7-3.9-0.7-5.9c0-1.9,0.3-3.9,0.7-5.7c0.6-1.9,1.3-3.4,2.3-5
		c1-1.4,2.4-2.6,4.2-3.6c1.7-1,3.7-1.3,6-1.3s4.3,0.4,6,1.4c1.7,1,3,2.1,4,3.7s1.7,3.3,2.3,5.3c0.4,2,0.6,4,0.6,6h-22.5
		C639.2,305.8,639.4,307.1,639.8,308.5z M657.5,297.5c-0.4-1.3-1-2.3-1.9-3.3c-0.9-1-1.7-1.7-2.9-2.3s-2.4-0.9-3.9-0.9
		c-1.4,0-2.7,0.3-3.9,0.9c-1.1,0.6-2.1,1.4-2.9,2.3c-0.9,1-1.4,2.1-1.9,3.3c-0.4,1.3-0.7,2.6-1,3.9h18.9
		C658.1,300.1,658,298.8,657.5,297.5z"/>
	<path style="fill:#E72035;" d="M706.8,309.7c-0.3,1.6-0.9,3-1.9,4.4c-1,1.4-2.3,2.6-4.2,3.4c-1.7,0.9-4.2,1.4-7.2,1.4
		c-1.7,0-3.3-0.3-4.9-0.7c-1.6-0.4-3-1.1-4.3-2.1c-1.3-1-2.3-2.3-3-3.9s-1.1-3.4-1.1-5.7v-3.6h8v1.9c0,1,0.1,1.9,0.3,2.7
		c0.1,0.9,0.4,1.6,0.9,2.1c0.4,0.6,0.9,1,1.6,1.4c0.7,0.3,1.6,0.6,2.6,0.6c1.1,0,2.1-0.1,2.7-0.6c0.6-0.4,1.1-1,1.4-1.6
		c0.3-0.7,0.4-1.4,0.6-2.1c0-0.7,0.1-1.6,0.1-2.3v-27.5h8.9v27.8C707.1,306.7,707.1,308.1,706.8,309.7z"/>
	<path style="fill:#E72035;" d="M713.5,297.8c0.1-1.9,0.6-3.4,1.4-4.7c0.9-1.3,1.9-2.3,3.1-3c1.3-0.7,2.7-1.3,4.3-1.6
		c1.6-0.3,3.3-0.4,4.9-0.4c1.4,0,3,0.1,4.4,0.3c1.6,0.1,2.9,0.6,4.2,1.3c1.3,0.6,2.3,1.4,3,2.6c0.9,1.1,1.1,2.6,1.1,4.3v15.3
		c0,1.3,0.1,2.6,0.3,3.9c0.1,1.1,0.4,2.1,0.9,2.7H733c-0.1-0.4-0.3-0.9-0.4-1.4c-0.1-0.4-0.1-1-0.1-1.4c-1.3,1.3-2.9,2.3-4.6,2.7
		c-1.7,0.6-3.6,0.9-5.3,0.9c-1.4,0-2.7-0.1-3.9-0.6c-1.1-0.3-2.3-0.9-3.1-1.6c-0.9-0.7-1.6-1.6-2.1-2.7c-0.6-1.1-0.7-2.4-0.7-3.9
		c0-1.7,0.3-3,0.9-4.2s1.3-2,2.3-2.6c0.9-0.6,2-1.1,3.1-1.4c1.1-0.3,2.4-0.6,3.6-0.7s2.4-0.3,3.6-0.4s2.1-0.3,3.1-0.6
		c0.9-0.3,1.6-0.6,2.1-1s0.7-1,0.7-1.9c0-0.9-0.1-1.6-0.4-2c-0.3-0.4-0.7-0.9-1.1-1.1s-1-0.4-1.6-0.6s-1.3-0.1-2-0.1
		c-1.6,0-2.9,0.3-3.7,1c-0.9,0.7-1.4,1.9-1.6,3.4h-8.2V297.8z M732.1,303.8c-0.3,0.3-0.7,0.6-1.3,0.7s-1,0.3-1.6,0.4
		s-1.1,0.1-1.9,0.3c-0.6,0.1-1.3,0.1-1.9,0.3c-0.6,0.1-1.1,0.3-1.7,0.4s-1.1,0.4-1.6,0.7c-0.4,0.3-0.7,0.7-1,1.3
		c-0.3,0.4-0.4,1.1-0.4,1.9s0.1,1.3,0.4,1.9c0.3,0.4,0.6,0.9,1.1,1.1c0.4,0.3,1,0.4,1.6,0.6s1.3,0.1,1.9,0.1c1.6,0,2.9-0.3,3.7-0.9
		c0.9-0.6,1.6-1.1,1.9-1.9c0.4-0.7,0.7-1.4,0.7-2.3c0.1-0.7,0.1-1.4,0.1-1.9v-2.9H732.1z"/>
	<path style="fill:#E72035;" d="M754.3,288.8v3.7h0.1c1-1.6,2.3-2.7,3.7-3.4c1.6-0.7,3.1-1.1,5-1.1c2.3,0,4.3,0.4,6,1.3
		c1.7,0.9,3,2,4.2,3.4c1.1,1.4,1.9,3.1,2.4,5s0.9,3.9,0.9,6c0,2-0.3,3.9-0.9,5.7c-0.6,1.9-1.3,3.4-2.4,4.9c-1.1,1.4-2.4,2.6-4,3.3
		c-1.6,0.9-3.4,1.3-5.6,1.3c-1.9,0-3.4-0.4-5-1.1c-1.6-0.7-2.7-1.9-3.7-3.3h-0.1v13.9h-8v-39.5H754.3z M764.7,312.1
		c0.9-0.6,1.6-1.3,2.1-2c0.6-0.9,1-1.9,1.1-3c0.3-1.1,0.3-2.3,0.3-3.4c0-1.1-0.1-2.3-0.4-3.4c-0.3-1.1-0.7-2.1-1.3-3
		c-0.6-0.9-1.3-1.6-2.1-2.1c-0.9-0.6-2-0.9-3.3-0.9c-1.3,0-2.4,0.3-3.3,0.9c-0.9,0.6-1.6,1.3-2.1,2.1c-0.6,0.9-1,1.9-1.1,3
		c-0.3,1.1-0.3,2.3-0.3,3.6c0,1.1,0.1,2.3,0.4,3.4c0.3,1.1,0.6,2.1,1.1,3c0.6,0.9,1.3,1.6,2.1,2c0.9,0.4,2,0.9,3.3,0.9
		C762.7,312.8,763.9,312.5,764.7,312.1z"/>
	<path style="fill:#E72035;" d="M781.1,297.8c0.1-1.9,0.6-3.4,1.4-4.7c0.9-1.3,1.9-2.3,3.1-3s2.7-1.3,4.3-1.6
		c1.6-0.3,3.3-0.4,4.9-0.4c1.4,0,3,0.1,4.4,0.3c1.6,0.1,2.9,0.6,4.2,1.3c1.3,0.6,2.3,1.4,3,2.6c0.9,1.1,1.1,2.6,1.1,4.3v15.3
		c0,1.3,0.1,2.6,0.3,3.9c0.1,1.1,0.4,2.1,0.9,2.7h-8.2c-0.1-0.4-0.3-0.9-0.4-1.4c-0.1-0.4-0.1-1-0.1-1.4c-1.3,1.3-2.9,2.3-4.6,2.7
		c-1.7,0.6-3.6,0.9-5.3,0.9c-1.4,0-2.7-0.1-3.9-0.6c-1.1-0.3-2.3-0.9-3.1-1.6c-0.9-0.7-1.6-1.6-2.1-2.7c-0.6-1.1-0.7-2.4-0.7-3.9
		c0-1.7,0.3-3,0.9-4.2c0.6-1.1,1.3-2,2.3-2.6c0.9-0.6,2-1.1,3.1-1.4s2.4-0.6,3.6-0.7s2.4-0.3,3.6-0.4s2.1-0.3,3.1-0.6
		c0.9-0.3,1.6-0.6,2.1-1c0.6-0.4,0.7-1,0.7-1.9c0-0.9-0.1-1.6-0.4-2c-0.3-0.4-0.7-0.9-1.1-1.1s-1-0.4-1.6-0.6
		c-0.6-0.1-1.3-0.1-2-0.1c-1.6,0-2.9,0.3-3.7,1c-0.9,0.7-1.4,1.9-1.6,3.4h-8.2V297.8z M799.7,303.8c-0.3,0.3-0.7,0.6-1.3,0.7
		s-1,0.3-1.6,0.4c-0.6,0.1-1.1,0.1-1.9,0.3c-0.6,0.1-1.3,0.1-1.9,0.3c-0.6,0.1-1.1,0.3-1.7,0.4s-1.1,0.4-1.6,0.7s-0.7,0.7-1,1.3
		c-0.3,0.4-0.4,1.1-0.4,1.9s0.1,1.3,0.4,1.9c0.3,0.4,0.6,0.9,1.1,1.1c0.4,0.3,1,0.4,1.6,0.6c0.6,0.1,1.3,0.1,1.9,0.1
		c1.6,0,2.9-0.3,3.7-0.9c0.9-0.6,1.6-1.1,1.9-1.9c0.4-0.7,0.7-1.4,0.7-2.3c0.1-0.7,0.1-1.4,0.1-1.9v-2.9H799.7z"/>
	<path style="fill:#E72035;" d="M821.9,288.8v4.2h0.1c1-1.7,2.3-3,4-3.7c1.6-0.7,3.3-1.1,5-1.1c2.1,0,3.9,0.3,5.3,0.9
		c1.4,0.6,2.4,1.4,3.3,2.4c0.9,1,1.3,2.3,1.7,3.9c0.3,1.4,0.4,3.1,0.4,5v18h-8v-16.7c0-2.4-0.4-4.3-1.1-5.4c-0.7-1.1-2.1-1.7-4-1.7
		c-2.1,0-3.7,0.7-4.7,2c-1,1.3-1.4,3.4-1.4,6.4v15.3h-8v-29.3H821.9z"/>
</g>
</svg>
