<?xml version="1.0" encoding="utf-8"?>
<!-- Generator: Adobe Illustrator 18.1.1, SVG Export Plug-In . SVG Version: 6.00 Build 0)  -->
<!DOCTYPE svg PUBLIC "-//W3C//DTD SVG 1.1//EN" "http://www.w3.org/Graphics/SVG/1.1/DTD/svg11.dtd">
<svg version="1.1" id="レイヤー_1" xmlns="http://www.w3.org/2000/svg" xmlns:xlink="http://www.w3.org/1999/xlink" x="0px"
	 y="0px" viewBox="0 841.9 589.8 47.6" enable-background="new 0 841.9 589.8 47.6" xml:space="preserve">
<g>
	<path fill="#D82835" d="M28.9,841.9H11.8L0.1,887h5.7l10.2-39.5h11.5L28.9,841.9z M47.6,888.2h6.9l1-3.9h5.2l-1,3.6h6.6l10.2-39.3
		H57.9L47.6,888.2z M68.2,855.2l-5.9,22.8h-5.2l5.9-22.8H68.2z M44.7,869.9H51l1.7-6.5H46l1.7-6.5h5.5l1.7-6.5H43.8
		c0.8-1.5,1.1-2.1,1.4-2.6c1-0.3,1.5-0.7,1.6-1.1c0.1-0.4-0.1-0.6-0.5-0.7l-6.8-1.2c-2.7,6.1-5.8,10.7-10.3,15.6
		c2.1,0.5,3.7,1,5.9,2.3c0.8-0.9,2.1-2.4,4.4-5.7h1.7l-1.4,5.4c-0.1,0.3-0.1,0.7-0.3,1h-9.4l-1.7,6.5h8.7
		c-2.9,6.4-6.5,9.9-13.5,14.4c1.8,1.3,3,2.5,4.3,4.7c6.6-4.3,10.3-9.1,11.6-11.2c0.9,2.9,1.9,5,4.1,7.1c1.1-1.2,2.3-2.5,5.9-5.7
		C47.4,877,45.5,874.3,44.7,869.9z M103.7,857.1c-4,0-7.2,0.7-12.8,2c-2.7,0.6-8.1,1.8-10.1,2.1l0.5,8.1c4.5-1.8,13.9-5.8,20.6-5.8
		c3.4,0,6.3,1.3,5,6.5c-1.9,7.3-10.1,8.8-17.1,8.8c-1.8,0-3-0.1-4-0.2c0.5,2.9,0.7,4.3,0.5,7.2c4.3-0.1,10.1-1,13.7-2.3
		c6.4-2.1,12.1-6.2,14-13.6C115.4,864.6,114.5,857.1,103.7,857.1z M124.4,849.9l-1.3,9c4.6-1.1,16.7-2.6,20.4-2.8
		c-2.3,1.5-10.3,7-12.6,15.8c-2.6,10.3,5.4,14.7,13.3,16.7c0.9-1.5,2.4-4.3,5.8-8.6c-2.5-0.1-13.1-0.7-11.1-8.7
		c1.6-6.2,12.8-18.2,26.4-18.1l0.7-7.9c-11.7,3.4-31.1,4.7-38.1,4.7C126.3,850,125.4,850,124.4,849.9z M200.3,853.7
		c2.8,6.5,4,13.5,1.9,23.6c1.8-0.8,5.6-2.4,8.7-3.5c1.5-8.8,0-17-3.4-24L200.3,853.7z M184.8,868c-2.1,3-5,7.2-6.5,7.2
		c-1.4,0-2.1-4-0.7-9.9c1.7-6.5,4.6-11.5,6.4-14.4c0.4-0.1,1-0.1,1.2-0.7c0.1-0.4-0.4-0.6-0.7-0.7l-7.2-2.2
		c-2.9,6.2-5.4,11.7-7,17.8c-3.8,14.8,1.8,20.4,4.5,20.4c2.3,0,7.5-3.2,13.7-12.5C187.3,872.1,185.9,870.4,184.8,868z M248.1,860.4
		c-2.6,0-5.1,0.5-5.9,0.7c1.3-1.1,10.6-8.5,14.5-10.6l-2.5-5.2c-9,3.2-22.8,3.1-24.7,3l-0.8,7.5c9.8-1,11.5-1.3,13.1-1.7
		c-4.3,4.3-17.7,14.8-24.1,18.6l4.3,5.6c8.4-6.9,14.2-11.7,22.3-11.7c7.4,0,6.2,5.8,5.9,7c-0.1,0.4-1,4-4.6,5.7c0.1-4.5-4-7-8.4-7
		c-5,0-10.1,2.9-11.3,7.6c-1.5,5.8,3.8,8.2,10,8.2c8.2,0,19.5-4.6,22.2-15C260.2,864.5,254.6,860.4,248.1,860.4z M236.3,882.4
		c-1.6,0-4.1-0.7-3.7-2.5c0.2-0.8,0.8-1.7,2.4-1.7c1.3,0,3.7,0.6,3.7,3.9C238.3,882.1,237.4,882.4,236.3,882.4z M273.4,883.8h-11.5
		l-1.5,5.7h17.1l11.7-45.1h-5.7L273.4,883.8z M326.2,846.9c-14,0-26.5,12-29.1,22.2c-2.3,8.8,3,15.1,6.8,15.1
		c5.1,0,15.6-13.1,21.7-30.5c8.8,0.7,9,7.9,8,11.7c-1.2,5-6.4,13-17.2,14.9c1.7,2.5,2.3,4,3.2,6.8c4.5-1.8,8.4-3.5,12.1-6.9
		c7.1-6.5,8.9-12.6,9.5-14.8C344,854,336.6,846.9,326.2,846.9z M309.1,871.6c-0.9,1.2-2.3,3.4-3.4,3.4c-1,0-2.3-2.8-1.4-6.5
		c1.1-4.3,6.7-11.3,12.8-13.4C315.4,861.3,312.4,866.8,309.1,871.6z M350.1,874.3l-5.9,5.1c3.9,2.8,6.1,5.7,7.6,8.2l6.8-5.3
		C357.3,880.9,354.3,877.3,350.1,874.3z M414.2,849.2l-1.8-4.4c-7,1.8-17.9,1.8-19.3,1.8c-2.5,0-4.3-0.1-5.5-0.1l-1.5,7.4
		c1,0,2-0.1,3.4-0.1c1.1-0.1,6.6-0.7,7.9-0.7c-3.2,3.4-6.2,5.6-11.2,8.7c-3.8,0.4-8.1,0.7-11.9,0.9l-0.3,8.7
		c3.9-1.2,11.9-3.4,18.9-4.3c-4,3.1-7,7-8,10.7c-2.6,9.9,7.7,11,15,11.7c1.3-2.5,3-5.1,4.5-7.2c-7.3-0.1-12.3-0.5-11.1-5.4
		c1.2-4.8,9.9-13.1,23.5-13.1l1.1-7.3c-7,1.5-11.2,2.3-19.6,3.7C401.8,857.5,408.1,853,414.2,849.2z M453.9,846.9
		c-14,0-26.5,12-29.1,22.2c-2.3,8.8,3,15.1,6.8,15.1c5.1,0,15.6-13.1,21.7-30.5c8.8,0.7,9,7.9,8,11.7c-1.2,5-6.4,13-17.2,14.9
		c1.7,2.5,2.3,4,3.2,6.8c4.5-1.8,8.4-3.5,12.1-6.9c7.1-6.5,8.9-12.6,9.5-14.8C471.6,854,464.3,846.9,453.9,846.9z M436.8,871.6
		c-0.9,1.2-2.3,3.4-3.4,3.4c-1,0-2.3-2.8-1.4-6.5c1.1-4.3,6.7-11.3,12.8-13.4C443.1,861.3,440.1,866.8,436.8,871.6z M504.5,851.3
		c0.9-1.4,1.5-2.3,2.4-3.7c0.9-0.1,1.3-0.2,1.5-0.8c0.1-0.5-0.4-0.7-0.9-0.8l-6.2-1.6c-1.5,3.4-5.5,10.7-13.1,17.4
		c2.4,0.4,3.4,1,5.9,2.8c2.8-2.7,3.9-4,5.7-6.6h14.2c-1.6,2.7-3.7,5.3-5.7,7.6c1.4,0.3,3.8,1,5.9,2.3c3.2-3.6,6.5-7.7,9.7-13.9
		l-2-2.5L504.5,851.3L504.5,851.3z M491.5,853.7c-0.8-1.7-3.9-5.4-5.8-7.2l-6,4.7c2.9,3.2,5.1,6.5,5.6,7.3
		C487.2,856.7,488.7,855.5,491.5,853.7z M485.6,864.4c-2.6,4.7-8.1,12.2-14.4,17.9l4.5,3.9c0.2,0.2,0.4,0.4,0.8,0.4
		c0.2,0,0.6-0.1,0.7-0.6c0.1-0.3,0.1-0.5,0.1-0.8c6.8-7.7,10.2-13.1,12-16.4C487.3,867.4,486.1,865.5,485.6,864.4z M506.3,864.9
		c0.7-1.8,1-2.6,1.3-3.8c0.5-0.2,1.2-0.4,1.3-0.9c0.1-0.5-0.1-0.7-1.3-0.9l-6.1-0.5c-1.1,4.5-4.7,19.5-21.7,24.5
		c2.4,2.1,3.1,3.8,3.4,5.4c8.7-3.6,14.8-9.5,18-14.1c1.4,5,5.4,11.2,9.3,13.9c2.1-2.6,3.2-3.4,6-5.7
		C507.2,876.8,506.3,868.6,506.3,864.9z M554.9,857.4c-2.1-3.9-3.6-5.9-6.5-5.9c-2.9,0-4.6,1.7-9.8,7c-4.1,4.2-8.6,8.1-13.5,11.2
		l4.8,6.2c4.8-4.1,5.6-5,13.1-13c0.9-1,2.1-2.3,2.9-2.3c0.9,0,1.8,1.5,2.1,2.1c4.4,7.9,8.1,14.8,14.5,21.5c1.3-1.5,5.1-5.5,7.2-7.3
		C562,870.5,557.6,862.4,554.9,857.4z M584.6,874.2c-3.7,0-7.5,3.1-8.4,6.8c-1,3.7,1.3,6.8,5,6.8s7.5-3,8.5-6.8
		C590.5,877.2,588.2,874.2,584.6,874.2z M586.6,880.9c-0.5,2.1-2.6,3.7-4.8,3.7c-2.1,0-3.3-1.7-2.8-3.7s2.6-3.7,4.8-3.7
		C586,877.1,587.1,878.9,586.6,880.9z"/>
</g>
<g>
	<path d="M326.2,846.9c-14,0-26.5,12-29.1,22.2c-2.3,8.8,3,15.1,6.8,15.1c5.1,0,15.6-13.1,21.7-30.5c8.8,0.7,9,7.9,8,11.7
		c-1.2,5-6.4,13-17.2,14.9c1.7,2.5,2.3,4,3.2,6.8c4.5-1.8,8.4-3.5,12.1-6.9c7.1-6.5,8.9-12.6,9.5-14.8
		C344,854,336.7,846.9,326.2,846.9z M309.2,871.6c-0.9,1.2-2.3,3.4-3.4,3.4c-1,0-2.3-2.8-1.4-6.5c1.1-4.3,6.7-11.3,12.8-13.4
		C315.4,861.3,312.4,866.8,309.2,871.6z M350.1,874.3l-5.9,5.1c3.9,2.8,6.1,5.7,7.6,8.2l6.8-5.3
		C357.3,880.9,354.3,877.3,350.1,874.3z M414.2,849.2l-1.8-4.4c-7,1.8-17.9,1.8-19.3,1.8c-2.5,0-4.3-0.1-5.5-0.1l-1.5,7.4
		c1,0,2-0.1,3.4-0.1c1.1-0.1,6.6-0.7,7.9-0.7c-3.2,3.4-6.2,5.6-11.2,8.7c-3.8,0.4-8.1,0.7-11.9,0.9l-0.4,8.7
		c3.9-1.2,11.9-3.4,18.9-4.3c-4,3.1-7,7-8,10.7c-2.6,9.9,7.7,11,15,11.7c1.3-2.5,3-5.1,4.5-7.2c-7.3-0.1-12.3-0.5-11.1-5.4
		c1.2-4.8,9.9-13.1,23.5-13.1l1.1-7.3c-7,1.5-11.2,2.3-19.6,3.7C401.9,857.5,408.1,853,414.2,849.2z M453.9,846.9
		c-14,0-26.5,12-29.1,22.2c-2.3,8.8,3,15.1,6.8,15.1c5.1,0,15.6-13.1,21.7-30.5c8.8,0.7,9,7.9,8,11.7c-1.2,5-6.4,13-17.2,14.9
		c1.7,2.5,2.3,4,3.2,6.8c4.5-1.8,8.4-3.5,12.1-6.9c7.1-6.5,8.9-12.6,9.5-14.8C471.6,854,464.3,846.9,453.9,846.9z M436.8,871.6
		c-0.9,1.2-2.3,3.4-3.4,3.4c-1,0-2.3-2.8-1.4-6.5c1.1-4.3,6.7-11.3,12.8-13.4C443,861.3,440.1,866.8,436.8,871.6z M554.9,857.4
		c-2.1-3.9-3.6-5.9-6.5-5.9c-2.9,0-4.6,1.7-9.8,7c-4.1,4.2-8.6,8.1-13.5,11.2l4.8,6.2c4.8-4.1,5.6-5,13.1-13c0.9-1,2.1-2.3,2.9-2.3
		c0.9,0,1.8,1.5,2.1,2.1c4.4,7.9,8.1,14.8,14.5,21.5c1.3-1.5,5.1-5.5,7.2-7.3C562,870.5,557.7,862.4,554.9,857.4z M584.6,874.2
		c-3.7,0-7.5,3.1-8.4,6.8c-1,3.7,1.3,6.8,5,6.8c3.7,0,7.5-3,8.5-6.8C590.5,877.2,588.3,874.2,584.6,874.2z M586.6,880.9
		c-0.5,2.1-2.6,3.7-4.8,3.7c-2.1,0-3.3-1.7-2.8-3.7s2.6-3.7,4.8-3.7C586,877.1,587.1,878.9,586.6,880.9z"/>
</g>
<path fill="#D82835" d="M28.9,841.9H11.8L0.1,887h5.7l10.2-39.5h11.5L28.9,841.9z M47.6,888.2h6.9l1-3.9h5.2l-1,3.6h6.6l10.2-39.3
	H57.9L47.6,888.2z M68.2,855.2l-5.9,22.8h-5.2l5.9-22.8H68.2z M44.8,869.9H51l1.7-6.5h-6.6l1.7-6.5h5.5l1.7-6.5H43.8
	c0.8-1.5,1.1-2.1,1.4-2.6c1-0.3,1.5-0.7,1.6-1.1c0.1-0.4-0.1-0.6-0.5-0.7l-6.8-1.2c-2.7,6.1-5.8,10.7-10.3,15.6
	c2.1,0.5,3.7,1,5.9,2.3c0.8-0.9,2.1-2.4,4.4-5.7h1.7l-1.4,5.4c-0.1,0.3-0.1,0.7-0.3,1h-9.3l-1.7,6.5h8.7c-2.9,6.4-6.5,9.9-13.5,14.4
	c1.8,1.3,3,2.5,4.3,4.7c6.6-4.3,10.3-9.1,11.6-11.2c0.9,2.9,1.9,5,4.1,7.1c1.1-1.2,2.3-2.5,5.9-5.7C47.4,877,45.5,874.3,44.8,869.9z
	 M103.7,857.1c-4,0-7.2,0.7-12.8,2c-2.7,0.6-8.1,1.8-10.1,2.1l0.5,8.1c4.5-1.8,13.9-5.8,20.6-5.8c3.4,0,6.3,1.3,5,6.5
	c-1.9,7.3-10.1,8.8-17.1,8.8c-1.8,0-3-0.1-4-0.2c0.5,2.9,0.7,4.3,0.5,7.2c4.3-0.1,10.1-1,13.7-2.3c6.4-2.1,12.1-6.2,14-13.6
	C115.4,864.6,114.5,857.1,103.7,857.1z M124.4,850l-1.3,9c4.6-1.1,16.7-2.6,20.4-2.8c-2.3,1.5-10.3,7-12.6,15.8
	c-2.6,10.3,5.4,14.7,13.3,16.7c0.9-1.5,2.4-4.3,5.8-8.6c-2.5-0.1-13.1-0.7-11.1-8.7c1.6-6.2,12.8-18.2,26.4-18.1l0.7-7.9
	c-11.7,3.4-31.1,4.7-38.1,4.7C126.4,850,125.4,850,124.4,850z M200.3,853.8c2.8,6.5,4,13.5,1.9,23.6c1.8-0.8,5.6-2.4,8.7-3.5
	c1.5-8.8,0-17-3.4-24L200.3,853.8z M184.8,868c-2.1,3-5,7.2-6.5,7.2c-1.4,0-2.1-4-0.7-9.9c1.7-6.5,4.6-11.5,6.4-14.4
	c0.4-0.1,1-0.1,1.2-0.7c0.1-0.4-0.4-0.6-0.7-0.7l-7.2-2.2c-2.9,6.2-5.4,11.7-7,17.8c-3.8,14.8,1.8,20.4,4.5,20.4
	c2.3,0,7.5-3.2,13.7-12.5C187.3,872.1,186,870.4,184.8,868z M248.1,860.4c-2.6,0-5.1,0.5-5.9,0.7c1.3-1.1,10.6-8.5,14.5-10.6
	l-2.5-5.2c-9,3.2-22.8,3.1-24.7,3l-0.8,7.5c9.8-1,11.5-1.3,13.1-1.7c-4.3,4.3-17.7,14.8-24.1,18.6l4.3,5.6
	c8.4-6.9,14.2-11.7,22.3-11.7c7.4,0,6.2,5.8,5.9,7c-0.1,0.4-1,4-4.6,5.7c0.1-4.5-4-7-8.4-7c-5,0-10.1,2.9-11.3,7.6
	c-1.5,5.8,3.8,8.2,10,8.2c8.2,0,19.5-4.6,22.2-15C260.2,864.5,254.6,860.4,248.1,860.4z M236.4,882.4c-1.6,0-4.1-0.7-3.7-2.5
	c0.2-0.8,0.8-1.7,2.4-1.7c1.3,0,3.7,0.6,3.7,3.9C238.3,882.1,237.5,882.4,236.4,882.4z M273.4,883.8h-11.5l-1.5,5.7h17.1l11.7-45.1
	h-5.7L273.4,883.8z"/>
<path fill="#D82835" d="M504.4,851.3c0.9-1.4,1.5-2.3,2.4-3.7c0.9-0.1,1.3-0.2,1.5-0.8c0.1-0.5-0.4-0.7-0.9-0.8l-6.2-1.6
	c-1.5,3.4-5.5,10.7-13.1,17.4c2.4,0.4,3.4,1,5.9,2.8c2.8-2.7,3.9-4,5.7-6.6H514c-1.6,2.7-3.7,5.3-5.7,7.6c1.4,0.3,3.8,1,5.9,2.3
	c3.2-3.6,6.5-7.7,9.7-13.9l-2-2.5L504.4,851.3L504.4,851.3z"/>
<path fill="#D82835" d="M491.4,853.7c-0.8-1.7-3.9-5.4-5.8-7.2l-6,4.7c2.9,3.2,5.1,6.5,5.6,7.3C487.2,856.7,488.6,855.5,491.4,853.7
	z"/>
<path fill="#D82835" d="M485.5,864.4c-2.6,4.7-8.1,12.2-14.4,17.9l4.5,3.9c0.2,0.2,0.4,0.4,0.8,0.4c0.2,0,0.6-0.1,0.7-0.6
	c0.1-0.3,0.1-0.5,0.1-0.8c6.8-7.7,10.2-13.1,12-16.4C487.2,867.4,486.1,865.5,485.5,864.4z"/>
<path fill="#D82835" d="M506.2,864.9c0.7-1.8,1-2.6,1.3-3.8c0.5-0.2,1.2-0.4,1.3-0.9c0.1-0.5-0.1-0.7-1.3-0.9l-6.1-0.5
	c-1.1,4.5-4.7,19.5-21.7,24.5c2.4,2.1,3.1,3.8,3.4,5.4c8.7-3.6,14.8-9.5,18-14.1c1.4,5,5.4,11.2,9.3,13.9c2.1-2.6,3.2-3.4,6-5.7
	C507.1,876.8,506.2,868.6,506.2,864.9z"/>
</svg>
